<svg fill="none" viewBox="0 0 600 371">
    <path class="graph__vertical-lines" d="M28.5 18.5v304m181-304v304m181-304v304m181-304v304"/>
    <path class="graph__data-line" stroke-width="2" d="M28.206888 62.414078 64.44597 76.48729l36.23908 12.62813 36.23908 11.39476 36.23908 10.33366 36.23909 9.414186 36.23907 8.612214 36.23909 7.90852 36.23908 7.28769 36.23906 6.73722 36.23912 6.24682 36.23908 5.80811 36.23907 5.41403 36.23907 5.05875 36.23906 4.73732 36.2391 4.4456m0 0"/>
    <path class="graph__data-points" d="M34.206886 62.414078c0 3.313702-2.68629 6.000002-5.999998 6.000002-3.313709 0-6-2.6863-6-6.000002 0-3.313708 2.686291-6 6-6 3.313708 0 5.999998 2.686292 5.999998 6ZM215.4023 120.258026c0 3.313704-2.6863 6-6 6s-6-2.686296-6-6c0-3.313706 2.6863-6 6-6s6 2.686294 6 6Zm181.19542 36.792464c0 3.31371-2.68632 6-6 6-3.31372 0-6-2.68629-6-6 0-3.31372 2.68628-6 6-6 3.31368 0 6 2.68628 6 6ZM577.7931 182.5143c0 3.3137-2.6863 6-6 6-3.31367 0-6-2.6863-6-6 0-3.31371 2.68633-6 6-6 3.3137 0 6 2.68629 6 6Z"/>
    <path class="graph__data-label" d="M19.628763 40.117203h1.78125v1.328125h-1.78125v2.96875h-1.625v-2.96875h-5.828125v-.953125l5.734375-8.875h1.71875v8.5Zm-5.609375 0h3.984375v-6.28125l-.203125.359375-3.78125 5.921875Zm11.109375-2.890625h1.234375q1.140625-.015625 1.796875-.609375.671875-.59375.671875-1.59375 0-2.25-2.25-2.25-1.046875 0-1.6875.609375-.625.59375-.625 1.59375h-1.625q0-1.515625 1.109375-2.515625 1.125-1.015625 2.828125-1.015625 1.8125 0 2.84375.953125t1.03125 2.65625q0 .84375-.546875 1.625-.53125.78125-1.46875 1.171875 1.046875.328125 1.625 1.109375.578125.765625.578125 1.890625 0 1.71875-1.125 2.734375-1.125 1-2.9375 1-1.796875 0-2.921875-.96875-1.125-.984375-1.125-2.578125h1.640625q0 1.015625.65625 1.625.65625.59375 1.765625.59375 1.171875 0 1.796875-.609375t.625-1.765625q0-1.125-.6875-1.71875t-1.96875-.609375h-1.234375v-1.328125Zm7.499997-3.15625q0-1.140625.734376-1.890625.734374-.75 1.890624-.75 1.171876 0 1.890626.75t.71875 1.953125v.625q0 1.15625-.734376 1.890625-.734374.734375-1.859374.734375-1.140626 0-1.890626-.734375t-.75-1.953125v-.625Zm1.21875.6875q0 .6875.375 1.125.390626.4375 1.046876.4375.625 0 1-.421875.390624-.4375.390624-1.171875v-.65625q0-.671875-.390624-1.125-.375-.453125-1.03125-.453125-.640626 0-1.015626.453125-.375.453125-.375 1.171875v.640625Zm5.015626 6.515625q0-1.15625.734374-1.890625.734376-.75 1.875-.75 1.15625 0 1.890626.75.75.734375.75 1.953125v.625q0 1.15625-.734376 1.90625-.734374.734375-1.875.734375-1.140624 0-1.890624-.734375t-.75-1.953125v-.640625Zm1.21875.6875q0 .6875.375 1.140625.390624.4375 1.046874.4375.625 0 1-.421875.390626-.4375.390626-1.1875v-.65625q0-.6875-.390626-1.125-.375-.453125-1.015624-.453125-.625 0-1.015626.4375-.390624.4375-.390624 1.171875v.65625Zm-4.453126 1.484375-.921874-.578125 6.25-10 .921874.578125-6.25 10Z"/>
    <path class="graph__data-label" d="M196.32417 95.070526h1.23438q1.14062-.015626 1.79687-.609376.67188-.59375.67188-1.59375 0-2.25-2.25-2.25-1.04688 0-1.6875.609376-.625.59375-.625 1.59375h-1.625q0-1.515626 1.10937-2.515626 1.125-1.015624 2.82813-1.015624 1.8125 0 2.84375.953124 1.03125.953126 1.03125 2.65625 0 .84375-.54688 1.625-.53125.78125-1.46875 1.171876 1.04688.328124 1.625 1.109374.57813.765626.57813 1.890626 0 1.71875-1.125 2.734374-1.125 1-2.9375 1-1.79688 0-2.92188-.96875-1.125-.984374-1.125-2.578124h1.64063q0 1.015624.65625 1.625.65625.59375 1.76562.59375 1.17188 0 1.79688-.609376.625-.609374.625-1.765624 0-1.125-.6875-1.71875t-1.96875-.609376h-1.23438v-1.328124Zm10 0h1.23438q1.14062-.015626 1.79687-.609376.67188-.59375.67188-1.59375 0-2.25-2.25-2.25-1.04688 0-1.6875.609376-.625.59375-.625 1.59375h-1.625q0-1.515626 1.10937-2.515626 1.125-1.015624 2.82813-1.015624 1.8125 0 2.84375.953124 1.03125.953126 1.03125 2.65625 0 .84375-.54688 1.625-.53125.78125-1.46875 1.171876 1.04688.328124 1.625 1.109374.57813.765626.57813 1.890626 0 1.71875-1.125 2.734374-1.125 1-2.9375 1-1.79688 0-2.92188-.96875-1.125-.984374-1.125-2.578124h1.64063q0 1.015624.65625 1.625.65625.59375 1.76562.59375 1.17188 0 1.79688-.609376.625-.609374.625-1.765624 0-1.125-.6875-1.71875t-1.96875-.609376h-1.23438v-1.328124Zm7.5-3.15625q0-1.140626.73438-1.890626.73437-.75 1.89062-.75 1.17188 0 1.89063.75t.71875 1.953126v.625q0 1.15625-.73438 1.890624-.73437.734376-1.85937.734376-1.14063 0-1.89063-.734376-.75-.734374-.75-1.953124v-.625Zm1.21875.6875q0 .6875.375 1.125.39063.4375 1.04688.4375.625 0 1-.421876.39062-.4375.39062-1.171874v-.65625q0-.671876-.39062-1.125-.375-.453126-1.03125-.453126-.64063 0-1.01563.453126-.375.453124-.375 1.171874v.640626Zm5.01563 6.515624q0-1.15625.73437-1.890624.73438-.75 1.875-.75 1.15625 0 1.89063.75.75.734374.75 1.953124v.625q0 1.15625-.73438 1.90625-.73437.734376-1.875.734376-1.14062 0-1.89062-.734376-.75-.734374-.75-1.953124V99.1174Zm1.21875.6875q0 .6875.375 1.140626.39062.4375 1.04687.4375.625 0 1-.421876.39063-.4375.39063-1.1875v-.65625q0-.6875-.39063-1.125-.375-.453124-1.01562-.453124-.625 0-1.01563.4375-.39062.4375-.39062 1.171874v.65625Zm-4.45313 1.484376-.92187-.578126 6.25-10 .92187.578126-6.25 10Z"/>
    <path class="graph__data-label" d="M383.55084 139.05049h-8.39062v-1.17187l4.4375-4.92188q.98438-1.10937 1.34375-1.8125.375-.70312.375-1.45312 0-1-.60937-1.64063-.59376-.64062-1.60938-.64062-1.21875 0-1.89062.70312-.67188.6875-.67188 1.90625h-1.625q0-1.76562 1.14062-2.84375 1.14063-1.09375 3.04688-1.09375 1.78125 0 2.8125.9375 1.04688.9375 1.04688 2.48438 0 1.89062-2.40626 4.5l-3.42187 3.71875h6.42187v1.32812Zm9.875-11.89062-5.29687 11.89062h-1.70313l5.28126-11.46875h-6.9375v-1.32812h8.65624v.90625Zm1.59376 1.54687q0-1.14062.73437-1.89062t1.89063-.75q1.17187 0 1.89062.75t.71875 1.95312v.625q0 1.15625-.73437 1.89063-.73438.73437-1.85938.73437-1.14062 0-1.89062-.73437-.75-.73438-.75-1.95313v-.625Zm1.21874.6875q0 .6875.375 1.125.39063.4375 1.04688.4375.625 0 1-.42187.39062-.4375.39062-1.17188v-.65625q0-.67187-.39062-1.125-.375-.45312-1.03125-.45312-.64063 0-1.01563.45312-.375.45313-.375 1.17188v.64062Zm5.01563 6.51563q0-1.15625.73437-1.89063.73438-.75 1.875-.75 1.15626 0 1.89063.75.75.73438.75 1.95313v.625q0 1.15625-.73437 1.90625-.73438.73437-1.875.73437-1.14063 0-1.89063-.73437-.75-.73438-.75-1.95313v-.64062Zm1.21875.6875q0 .6875.375 1.14062.39062.4375 1.04688.4375.625 0 1-.42187.39062-.4375.39062-1.1875v-.65625q0-.6875-.39062-1.125-.375-.45313-1.01563-.45313-.625 0-1.01563.4375-.39062.4375-.39062 1.17188v.65625Zm-4.45312 1.48437-.92188-.57812 6.25-10 .92188.57812-6.25 10Z"/>
    <path class="graph__data-label" d="M564.7462 164.5143h-8.3906v-1.17188l4.4375-4.92187q.98437-1.10938 1.34374-1.8125.375-.70313.375-1.45313 0-1-.60937-1.64062-.59377-.64063-1.60937-.64063-1.21876 0-1.89063.70313-.67187.6875-.67187 1.90625h-1.625q0-1.76563 1.1406-2.84375 1.14064-1.09375 3.0469-1.09375 1.78124 0 2.8125.9375 1.04687.9375 1.04687 2.48437 0 1.89063-2.40627 4.5l-3.42186 3.71875h6.42186v1.32813Zm3.96877-7.1875h1.23437q1.14063-.01563 1.79686-.60938.6719-.59375.6719-1.59375 0-2.25-2.25-2.25-1.0469 0-1.6875.60938-.625.59375-.625 1.59375h-1.625q0-1.51563 1.10937-2.51563 1.125-1.01562 2.82813-1.01562 1.8125 0 2.84374.95312 1.03126.95313 1.03126 2.65625 0 .84375-.5469 1.625-.53123.78125-1.46873 1.17188 1.04687.32812 1.625 1.10937.57813.76563.57813 1.89063 0 1.71875-1.125 2.73437-1.125 1-2.9375 1-1.7969 0-2.9219-.96875-1.125-.98437-1.125-2.57812h1.64064q0 1.01562.65626 1.625.65624.59375 1.7656.59375 1.1719 0 1.7969-.60938.625-.60937.625-1.76562 0-1.125-.6875-1.71875t-1.96876-.60938h-1.23437v-1.32812Zm7.5-3.15625q0-1.14063.73437-1.89063.73436-.75 1.89063-.75 1.17187 0 1.89063.75.71874.75.71874 1.95313v.625q0 1.15625-.73437 1.89062-.73437.73438-1.85937.73438-1.14063 0-1.89063-.73438-.75-.73437-.75-1.95312v-.625Zm1.21873.6875q0 .6875.375 1.125.39064.4375 1.0469.4375.625 0 1-.42188.3906-.4375.3906-1.17187v-.65625q0-.67188-.3906-1.125-.375-.45313-1.03126-.45313-.64064 0-1.01564.45313-.375.45312-.375 1.17187v.64063Zm5.01564 6.51562q0-1.15625.73436-1.89062.7344-.75 1.875-.75 1.15627 0 1.89064.75.75.73437.75 1.95312v.625q0 1.15625-.73437 1.90625-.73437.73438-1.875.73438t-1.89063-.73438q-.75-.73437-.75-1.95312v-.64063Zm1.21876.6875q0 .6875.375 1.14063.3906.4375 1.04687.4375.625 0 1-.42188.39063-.4375.39063-1.1875v-.65625q0-.6875-.39063-1.125-.375-.45312-1.01563-.45312-.625 0-1.01564.4375-.3906.4375-.3906 1.17187v.65625Zm-4.45313 1.48438-.92187-.57813 6.25-10 .92187.57813-6.25 10Z"/>
    <path class="graph__axis-labels" d="M11.456888 342.09064q0-2.28124.46875-3.67188.46875-1.39062 1.390625-2.14062.9375-.76564 2.34375-.76564 1.03125 0 1.8125.4219.78125.40624 1.28125 1.2031.515625.78126.8125 1.9219.296875 1.125.296875 3.03124 0 2.26562-.46875 3.67186-.46875 1.39064-1.40625 2.15626-.921875.75-2.328125.75-1.875 0-2.9375-1.32812-1.265625-1.60938-1.265625-5.25Zm1.625 0q0 3.17186.734375 4.23436.75 1.0469 1.84375 1.0469 1.078125 0 1.828125-1.0469.75-1.0625.75-4.23436 0-3.17188-.75-4.21874-.75-1.0469-1.84375-1.0469t-1.75.9219q-.8125 1.17186-.8125 4.34374Zm9.21875 6.35936v-1.79686h1.8125V348.45q0 1-.359375 1.6094-.34375.60936-1.109375.9375l-.4375-.6719q.5-.21874.734375-.65624.234375-.42186.265625-1.21876h-.90625Zm10.109372 0h-1.578122v-10.0781q-.578125.54686-1.5 1.09374-.921875.53126-1.671875.8125v-1.53124q1.328125-.625 2.328125-1.51564 1-.89062 1.40625-1.71876h1.015622V348.45Zm4.046876-6.35936q0-2.28124.46875-3.67188.46875-1.39062 1.390624-2.14062.9375-.76564 2.34375-.76564 1.03125 0 1.8125.4219.78125.40624 1.28125 1.2031.515626.78126.8125 1.9219.296876 1.125.296876 3.03124 0 2.26562-.46875 3.67186-.46875 1.39064-1.40625 2.15626-.921876.75-2.328126.75-1.875 0-2.9375-1.32812-1.265624-1.60938-1.265624-5.25Zm1.625 0q0 3.17186.734374 4.23436.75 1.0469 1.84375 1.0469 1.078126 0 1.828126-1.0469.75-1.0625.75-4.23436 0-3.17188-.75-4.21874-.75-1.0469-1.84375-1.0469t-1.75.9219q-.8125 1.17186-.8125 4.34374Zm154.570414 0q0-2.28124.46875-3.67188.46875-1.39062 1.39062-2.14062.9375-.76564 2.34375-.76564 1.03125 0 1.8125.4219.78125.40624 1.28125 1.2031.51563.78126.8125 1.9219.29688 1.125.29688 3.03124 0 2.26562-.46875 3.67186-.46875 1.39064-1.40625 2.15626-.92188.75-2.32813.75-1.875 0-2.9375-1.32812-1.26562-1.60938-1.26562-5.25Zm1.625 0q0 3.17186.73437 4.23436.75 1.0469 1.84375 1.0469 1.07813 0 1.82813-1.0469.75-1.0625.75-4.23436 0-3.17188-.75-4.21874-.75-1.0469-1.84375-1.0469t-1.75.9219q-.8125 1.17186-.8125 4.34374Zm9.21875 6.35936v-1.79686h1.8125V348.45q0 1-.35938 1.6094-.34375.60936-1.10937.9375l-.4375-.6719q.5-.21874.73437-.65624.23438-.42186.26563-1.21876h-.90625Zm10.10937 0h-1.57812v-10.0781q-.57813.54686-1.5 1.09374-.92188.53126-1.67188.8125v-1.53124q1.32813-.625 2.32813-1.51564 1-.89062 1.40625-1.71876h1.01562V348.45Zm4.04688-3.375 1.65625-.1406q.1875 1.21874.85937 1.8281.67188.6094 1.625.6094 1.14063 0 1.92188-.8594.79687-.85936.79687-2.29686 0-1.34374-.76562-2.125-.75-.78124-1.98438-.78124-.76562 0-1.39062.34374-.60938.34376-.95313.90626l-1.48437-.20314 1.25-6.60936h6.40625v1.5h-5.14063l-.70312 3.46874q1.17187-.8125 2.4375-.8125 1.6875 0 2.84375 1.17186 1.17187 1.1719 1.17187 3 0 1.75-1.03125 3.03126-1.23437 1.5625-3.375 1.5625-1.76562 0-2.875-.98436-1.10937-.9844-1.26562-2.6094Zm156.19542-2.98436q0-2.28124.46875-3.67188.46875-1.39062 1.39063-2.14062.9375-.76564 2.34374-.76564 1.03126 0 1.8125.4219.78126.40624 1.28126 1.2031.51562.78126.8125 1.9219.29687 1.125.29687 3.03124 0 2.26562-.46875 3.67186-.46875 1.39064-1.40625 2.15626-.92187.75-2.32813.75-1.875 0-2.9375-1.32812-1.26562-1.60938-1.26562-5.25Zm1.625 0q0 3.17186.73438 4.23436.75 1.0469 1.84374 1.0469 1.07813 0 1.82813-1.0469.75-1.0625.75-4.23436 0-3.17188-.75-4.21874-.75-1.0469-1.84375-1.0469t-1.75.9219q-.8125 1.17186-.8125 4.34374Zm9.21875 6.35936v-1.79686h1.8125V348.45q0 1-.35937 1.6094-.34376.60936-1.10938.9375l-.4375-.6719q.5-.21874.73438-.65624.23437-.42186.26562-1.21876h-.90625Zm12.46875-1.5156v1.5156h-8.51562q-.01563-.5781.1875-1.09374.32812-.875 1.03124-1.71876.71876-.84374 2.07813-1.9531 2.09375-1.71876 2.82813-2.71876.75-1.01564.75-1.90624 0-.95314-.67188-1.59376-.67188-.64064-1.75-.64064-1.15625 0-1.84375.6875-.67187.6875-.6875 1.89064l-1.625-.17188q.17187-1.8125 1.25-2.76562 1.09375-.95314 2.9375-.95314t2.92187 1.03126q1.09376 1.03124 1.09376 2.54688 0 .76562-.32813 1.51562-.3125.75-1.04687 1.57814-.73438.8281-2.4375 2.2656-1.42188 1.20314-1.82813 1.625-.40625.4219-.65625.8594h6.3125Zm1.6875-4.84376q0-2.28124.46875-3.67188.46875-1.39062 1.39063-2.14062.9375-.76564 2.34374-.76564 1.03126 0 1.8125.4219.78126.40624 1.28126 1.2031.51562.78126.8125 1.9219.29687 1.125.29687 3.03124 0 2.26562-.46875 3.67186-.46875 1.39064-1.40625 2.15626-.92187.75-2.32813.75-1.875 0-2.9375-1.32812-1.26562-1.60938-1.26562-5.25Zm1.625 0q0 3.17186.73438 4.23436.75 1.0469 1.84374 1.0469 1.07813 0 1.82813-1.0469.75-1.0625.75-4.23436 0-3.17188-.75-4.21874-.75-1.0469-1.84375-1.0469t-1.75.9219q-.8125 1.17186-.8125 4.34374Zm154.57038 0q0-2.28124.46874-3.67188.46876-1.39062 1.39063-2.14062.9375-.76564 2.34373-.76564 1.03127 0 1.8125.4219.78127.40624 1.28127 1.2031.51563.78126.8125 1.9219.29687 1.125.29687 3.03124 0 2.26562-.46874 3.67186-.46876 1.39064-1.40626 2.15626-.92187.75-2.32814.75-1.875 0-2.9375-1.32812-1.2656-1.60938-1.2656-5.25Zm1.625 0q0 3.17186.73437 4.23436.75 1.0469 1.84373 1.0469 1.07814 0 1.82814-1.0469.75-1.0625.75-4.23436 0-3.17188-.75-4.21874-.75-1.0469-1.84374-1.0469-1.09376 0-1.75.9219-.8125 1.17186-.8125 4.34374Zm9.21874 6.35936v-1.79686h1.8125V348.45q0 1-.35937 1.6094-.34377.60936-1.10937.9375l-.4375-.6719q.5-.21874.73437-.65624.23437-.42186.26563-1.21876h-.90626Zm12.46876-1.5156v1.5156h-8.51563q-.01563-.5781.1875-1.09374.32813-.875 1.03123-1.71876.71877-.84374 2.07814-1.9531 2.09376-1.71876 2.82813-2.71876.75-1.01564.75-1.90624 0-.95314-.67187-1.59376-.6719-.64064-1.75-.64064-1.15626 0-1.84376.6875-.67187.6875-.6875 1.89064l-1.625-.17188q.17186-1.8125 1.25-2.76562 1.09376-.95314 2.9375-.95314 1.84376 0 2.92186 1.03126 1.09377 1.03124 1.09377 2.54688 0 .76562-.32813 1.51562-.3125.75-1.04687 1.57814-.73437.8281-2.4375 2.2656-1.42187 1.20314-1.82813 1.625-.40624.4219-.65624.8594h6.3125Zm1.6875-1.8594 1.65624-.1406q.1875 1.21874.85936 1.8281.6719.6094 1.625.6094 1.14064 0 1.9219-.8594.79687-.85936.79687-2.29686 0-1.34374-.76563-2.125-.75-.78124-1.98437-.78124-.76563 0-1.39063.34374-.60937.34376-.95314.90626l-1.48436-.20314 1.25-6.60936h6.40626v1.5h-5.14063l-.70313 3.46874q1.17186-.8125 2.4375-.8125 1.6875 0 2.84376 1.17186 1.17187 1.1719 1.17187 3 0 1.75-1.03127 3.03126-1.23436 1.5625-3.375 1.5625-1.7656 0-2.875-.98436-1.10936-.9844-1.2656-2.6094Z"/>
  </svg>
  