<svg fill="none" viewBox="0 0 600 371">
    <path class="graph__vertical-lines" d="M28.5 18.5v304m60-304v304m61-304v304m60-304v304m60-304v304m61-304v304m60-304v304m60-304v304m61-304v304m60-304v304" />
    <path class="graph__data-line" stroke-width="2" d="M28.206888 69.14254s20.132822 63.32686 30.199236 84.43583c10.06641 21.10895 20.132826 30.95979 30.19923 42.21789 10.066416 11.25812 20.132826 18.29444 30.199236 25.33075 10.06641 7.03632 20.13282 12.06226 30.19924 16.88717 10.06641 4.8249 20.13281 8.54411 30.19923 12.06227 10.06641 3.51815 20.13283 6.36618 30.19924 9.04669 10.0664 2.68051 20.13283 4.92541 30.19923 7.03631 10.06641 2.11091 20.13281 3.92328 30.19922 5.62905 10.06645 1.7058 20.13285 3.19835 30.19925 4.6056 10.0664 1.40726 20.1328 2.65708 30.19925 3.838 10.06641 1.18092 20.13281 2.24233 30.19922 3.2475 10.0664 1.0052 20.13281 1.91762 30.19925 2.7836 10.0664.86604 20.13281 1.65858 30.19922 2.41246 10.0664.75391 20.13281 1.44867 30.19926 2.1109 10.0664.66226 20.1328 1.27621 30.1992 1.86254 10.0664.58637 20.13282 1.1328 30.19925 1.65562 10.06641.52283 20.13282 1.01224 30.19925 1.48135 10.0664.46909 30.1992 1.33319 30.1992 1.33319" />
    <path class="graph__data-points" d="M34.206886 69.14254c0 3.31371-2.68629 6-5.999998 6-3.313709 0-6-2.68629-6-6 0-3.313705 2.686291-5.999996 6-5.999996 3.313708 0 5.999998 2.686291 5.999998 5.999996Zm60.398468 126.65372c0 3.31373-2.686284 6-6 6-3.313704 0-6-2.68627-6-6 0-3.3137 2.686296-6 6-6 3.313716 0 6 2.6863 6 6Zm60.398476 42.21792c0 3.31372-2.68629 6-6 6s-6-2.68628-6-6c0-3.31371 2.68629-6 6-6s6 2.68629 6 6Zm60.39847 21.10896c0 3.31372-2.6863 6-6 6s-6-2.68628-6-6c0-3.31371 2.6863-6 6-6s6 2.68629 6 6Zm60.39845 12.66536c0 3.3137-2.68628 6-6 6-3.31369 0-6-2.6863-6-6s2.68631-6 6-6c3.31372 0 6 2.6863 6 6Zm60.3985 8.4436c0 3.3137-2.68631 6-6 6-3.31372 0-6-2.6863-6-6s2.68628-6 6-6c3.31369 0 6 2.6863 6 6Zm60.39847 6.0311c0 3.31373-2.68632 6-6 6-3.31372 0-6-2.68627-6-6 0-3.31368 2.68628-6 6-6 3.31368 0 6 2.68632 6 6Zm60.39848 4.52336c0 3.31372-2.68632 6-6 6-3.31374 0-6-2.68628-6-6 0-3.31369 2.68626-6 6-6 3.31368 0 6 2.68631 6 6Zm60.39845 3.51816c0 3.31372-2.68625 6-6 6-3.31372 0-6-2.68628-6-6 0-3.31369 2.68628-6 6-6 3.31375 0 6 2.68631 6 6Zm60.39845 2.81454c0 3.31369-2.6863 6-6 6-3.31367 0-6-2.68631-6-6 0-3.31372 2.68633-6 6-6 3.3137 0 6 2.68628 6 6Z" />
    <path class="graph__data-label" d="M17.613138 51.142544h-1.640625v-10.84375l-3.265625 1.203126v-1.46875l4.65625-1.75h.25v12.859374Zm11.03125-12.8125v1.390626h-.296875q-1.890625.03125-3.015625 1.125-1.125 1.078124-1.296875 3.0625 1-1.15625 2.75-1.15625 1.671875 0 2.671875 1.1875 1 1.171874 1 3.03125 0 1.96875-1.078125 3.15625t-2.890625 1.1875q-1.828125 0-2.984375-1.40625-1.140625-1.40625-1.140625-3.640626v-.625q0-3.53125 1.5-5.390624 1.515625-1.875 4.5-1.921876h.28125Zm-2.125 5.765626q-.84375 0-1.546875.515624-.703125.5-.96875 1.25v.59375q0 1.578126.703125 2.546876.71875.96875 1.78125.96875 1.09375 0 1.71875-.796876.640625-.8125.640625-2.125 0-1.328124-.640625-2.140624-.640625-.8125-1.6875-.8125Zm5.859372 9.59375-.921872-.625q.828122-1.15625.859372-2.375v-1.46875h1.59375v1.265624q0 .890626-.4375 1.78125-.421874.890626-1.09375 1.421876Zm12.15625-14.4375-5.296874 11.890624H37.53501l5.28125-11.46875h-6.9375V38.34567h8.65625v.90625Z" />
    <path
        class="graph__data-label"
        d="M85.43348 168.34314q0 .95312-.515626 1.70312-.5.75-1.359374 1.17188 1 .42187 1.578124 1.25.59375.82812.59375 1.875 0 1.65625-1.125 2.64062-1.125.98438-2.953124.98438-1.84375 0-2.953126-.98438-1.109374-.98437-1.109374-2.64062 0-1.03125.5625-1.85938.578124-.84375 1.578124-1.28125-.859374-.42187-1.359374-1.17187-.484376-.75-.484376-1.6875 0-1.625 1.03125-2.5625 1.046876-.95313 2.734376-.95313 1.6875 0 2.734374.95313 1.046876.9375 1.046876 2.5625Zm-1.328126 5.96875q0-1.07813-.6875-1.75-.671874-.6875-1.78125-.6875-1.09375 0-1.765624.67187-.65625.67188-.65625 1.76563 0 1.07812.640624 1.70312.65625.625 1.796876.625 1.15625 0 1.796874-.625.65625-.625.65625-1.70312Zm-2.453124-8.15625q-.953126 0-1.546876.59375-.59375.59375-.59375 1.60937 0 .98438.578126 1.59375.59375.59375 1.5625.59375.984374 0 1.5625-.59375.59375-.60937.59375-1.57812 0-.98438-.609376-1.59375-.609374-.625-1.546874-.625Zm6.125 14.1875-.921876-.625q.828126-1.15625.859376-2.375v-1.46875h1.59375v1.26562q0 .89063-.4375 1.78125-.421876.89063-1.09375 1.42188Zm6.25-9.73438h1.234374q1.140626-.01562 1.796876-.60937.671874-.59375.671874-1.59375 0-2.25-2.25-2.25-1.046874 0-1.6875.60937-.625.59375-.625 1.59375h-1.625q0-1.51562 1.109376-2.51562 1.125-1.01563 2.828124-1.01563 1.8125 0 2.84375.95313 1.03125.95312 1.03125 2.65625 0 .84375-.546874 1.625-.53125.78125-1.46875 1.17187 1.046874.32813 1.625 1.10938.578124.76562.578124 1.89062 0 1.71875-1.125 2.73438-1.125 1-2.9375 1-1.796874 0-2.921874-.96875-1.125-.98438-1.125-2.57813h1.640624q0 1.01563.65625 1.625.65625.59375 1.765626.59375 1.171874 0 1.796874-.60937.625-.60938.625-1.76563 0-1.125-.6875-1.71875t-1.96875-.60937H94.02723v-1.32813Z"
    />
    <path class="graph__data-label" d="m138.81633 213.5923.65625-6.375h6.54687v1.5h-5.17187l-.39063 3.48438q.9375-.54688 2.14063-.54688 1.75 0 2.76562 1.15625 1.03125 1.15625 1.03125 3.125 0 1.98438-1.0625 3.125-1.0625 1.125-2.98437 1.125-1.70313 0-2.78125-.9375-1.0625-.9375-1.20313-2.59375h1.53125q.15625 1.09375.78125 1.65625.64063.54688 1.67188.54688 1.14062 0 1.78125-.76563.64062-.78125.64062-2.14062 0-1.28125-.70312-2.0625-.6875-.78125-1.84375-.78125-1.0625 0-1.67188.46875l-.4375.35937-1.29687-.34375Zm9.35937 8.96875-.92187-.625q.82812-1.15625.85937-2.375v-1.46875h1.59375v1.26563q0 .89062-.4375 1.78125-.42187.89062-1.09375 1.42187Zm10.26563-15.35937v1.39062h-.29688q-1.89062.03125-3.01562 1.125-1.125 1.07813-1.29688 3.0625 1-1.15625 2.75-1.15625 1.67188 0 2.67188 1.1875 1 1.17188 1 3.03125 0 1.96875-1.07813 3.15625-1.07812 1.1875-2.89062 1.1875-1.82813 0-2.98438-1.40625-1.14062-1.40625-1.14062-3.64062v-.625q0-3.53125 1.5-5.39063 1.51562-1.875 4.5-1.92187h.28125Zm-2.125 5.76562q-.84375 0-1.54688.51563-.70312.5-.96875 1.25v.59375q0 1.57812.70313 2.54687.71875.96875 1.78125.96875 1.09375 0 1.71875-.79687.64062-.8125.64062-2.125 0-1.32813-.64062-2.14063-.64063-.8125-1.6875-.8125Z" />
    <path class="graph__data-label" d="M205.32417 236.82626h1.78125v1.32813h-1.78125v2.96875h-1.625v-2.96875h-5.82812v-.95313l5.73437-8.875h1.71875v8.5Zm-5.60937 0h3.98437v-6.28125l-.20312.35938-3.78125 5.92187Zm8.85937 6.84375-.92187-.625q.82812-1.15625.85937-2.375v-1.46875h1.59375v1.26563q0 .89062-.4375 1.78125-.42187.89062-1.09375 1.42187Zm12.28125-2.54687h-8.39062v-1.17188l4.4375-4.92187q.98437-1.10938 1.34375-1.8125.375-.70313.375-1.45313 0-1-.60938-1.64062-.59375-.64063-1.60937-.64063-1.21875 0-1.89063.70313-.67187.6875-.67187 1.90625h-1.625q0-1.76563 1.14062-2.84375 1.14063-1.09375 3.04688-1.09375 1.78125 0 2.8125.9375 1.04687.9375 1.04687 2.48437 0 1.89063-2.40625 4.5l-3.42187 3.71875h6.42187v1.32813Z" />
    <path class="graph__data-label" d="M261.22263 246.60101h1.23437q1.14063-.01562 1.79688-.60937.67187-.59375.67187-1.59375 0-2.25-2.25-2.25-1.04687 0-1.6875.60937-.625.59375-.625 1.59375h-1.625q0-1.51562 1.10938-2.51562 1.125-1.01563 2.82812-1.01563 1.8125 0 2.84375.95313 1.03125.95312 1.03125 2.65625 0 .84375-.54687 1.625-.53125.78125-1.46875 1.17187 1.04687.32813 1.625 1.10938.57812.76562.57812 1.89062 0 1.71875-1.125 2.73438-1.125 1-2.9375 1-1.79687 0-2.92187-.96875-1.125-.98438-1.125-2.57813h1.64062q0 1.01563.65625 1.625.65625.59375 1.76563.59375 1.17187 0 1.79687-.60937.625-.60938.625-1.76563 0-1.125-.6875-1.71875t-1.96875-.60937h-1.23437v-1.32813Zm7.75 9.73439-.92188-.62501q.82813-1.15625.85938-2.375v-1.46875h1.59375v1.26562q0 .89063-.4375 1.78125-.42188.89063-1.09375 1.42189Zm6.25-9.73439h1.23437q1.14063-.01562 1.79688-.60937.67187-.59375.67187-1.59375 0-2.25-2.25-2.25-1.04687 0-1.6875.60937-.625.59375-.625 1.59375h-1.625q0-1.51562 1.10938-2.51562 1.125-1.01563 2.82812-1.01563 1.8125 0 2.84375.95313 1.03125.95312 1.03125 2.65625 0 .84375-.54687 1.625-.53125.78125-1.46875 1.17187 1.04687.32813 1.625 1.10938.57812.76562.57812 1.89062 0 1.71875-1.125 2.73438-1.125 1-2.9375 1-1.79687 0-2.92187-.96875-1.125-.98438-1.125-2.57813h1.64062q0 1.01563.65625 1.625.65625.59375 1.76563.59375 1.17187 0 1.79687-.60937.625-.60938.625-1.76563 0-1.125-.6875-1.71875t-1.96875-.60937h-1.23437v-1.32813Z" />
    <path class="graph__data-label" d="M327.65237 262.2321h-8.39062v-1.1719l4.4375-4.92186q.98437-1.10938 1.34375-1.8125.375-.70313.375-1.45313 0-1-.60938-1.64062-.59375-.64063-1.60937-.64063-1.21875 0-1.89063.70313-.67187.6875-.67187 1.90625h-1.625q0-1.76563 1.14062-2.84375 1.14063-1.09375 3.04688-1.09375 1.78125 0 2.8125.9375 1.04687.9375 1.04687 2.48437 0 1.89063-2.40625 4.49999l-3.42187 3.71876h6.42187v1.32814Zm1.71875 2.54686-.92187-.625q.82812-1.15626.85937-2.375v-1.46876h1.59375v1.26564q0 .89062-.4375 1.78126-.42187.8906-1.09375 1.42186Zm11.65625-12q0 .95313-.51562 1.70313-.5.75-1.35938 1.17187 1 .42188 1.57813 1.25.59375.82814.59375 1.875 0 1.65624-1.125 2.64064-1.125.98436-2.95313.98436-1.84375 0-2.95312-.98436-1.10938-.9844-1.10938-2.64064 0-1.03126.5625-1.85936.57813-.84376 1.57813-1.28126-.85938-.42188-1.35938-1.17188-.48437-.75-.48437-1.6875 0-1.625 1.03125-2.5625 1.04687-.95312 2.73437-.95312 1.6875 0 2.73438.95312 1.04687.9375 1.04687 2.5625Zm-1.32812 5.96874q0-1.0781-.6875-1.75-.67188-.6875-1.78125-.6875-1.09375 0-1.76563.6719-.65625.67186-.65625 1.7656 0 1.07814.64063 1.70314.65625.625 1.79687.625 1.15625 0 1.79688-.625.65625-.625.65625-1.70314Zm-2.45313-8.15624q-.95312 0-1.54687.59375t-.59375 1.60938q0 .98437.57812 1.59375.59375.59375 1.5625.59375.98438 0 1.5625-.59375.59375-.60938.59375-1.57813 0-.98437-.60937-1.59375-.60938-.625-1.54688-.625Z" />
    <path class="graph__data-label" d="M388.05084 268.2632h-8.39062v-1.17186l4.4375-4.92188q.98438-1.10936 1.34375-1.8125.375-.70312.375-1.45312 0-1-.60937-1.64064-.59376-.6406-1.60938-.6406-1.21875 0-1.89062.7031-.67188.6875-.67188 1.90626h-1.625q0-1.76562 1.14062-2.84376 1.14063-1.09374 3.04688-1.09374 1.78125 0 2.8125.9375 1.04688.9375 1.04688 2.48438 0 1.89062-2.40626 4.5l-3.42187 3.71876h6.42187v1.3281Zm1.71876 2.5469-.92188-.625q.82812-1.15626.85938-2.375v-1.46876h1.59374v1.26562q0 .89064-.4375 1.78124-.42187.89064-1.09374 1.4219Zm10.75-6.84376h1.78124v1.32812h-1.78124v2.96874h-1.625v-2.96874h-5.82813v-.95312l5.73437-8.875h1.71876v8.5Zm-5.60938 0h3.98438v-6.28124l-.20313.35936-3.78125 5.92188Z" />
    <path class="graph__data-label" d="M448.4493 272.78656h-8.3906v-1.17186l4.4375-4.9219q.98436-1.10936 1.34374-1.8125.375-.7031.375-1.4531 0-1-.60938-1.64064-.59376-.64062-1.60936-.64062-1.21876 0-1.89064.70312-.67186.6875-.67186 1.90624h-1.625q0-1.7656 1.1406-2.84374 1.14064-1.09376 3.0469-1.09376 1.78124 0 2.8125.9375 1.04686.9375 1.04686 2.4844 0 1.8906-2.40626 4.5l-3.42186 3.71874h6.42186v1.32812Zm1.71876 2.54688-.92186-.625q.8281-1.15624.85936-2.375v-1.46874h1.59374v1.2656q0 .89064-.4375 1.78126-.42186.89064-1.09374 1.42188Zm9.23438-2.54688h-1.64064V261.9428l-3.2656 1.20314v-1.46874l4.65624-1.75h.25v12.85936Z" />
    <path class="graph__data-label" d="M505.8009 276.30472h-1.64062v-10.84375l-3.26563 1.20313v-1.46876l4.65625-1.75h.25v12.85938Zm4.76563 2.54688-.92188-.625q.82813-1.15626.85938-2.375v-1.46876h1.59377v1.26563q0 .89063-.43752 1.78125-.42188.89062-1.09375 1.42188Zm10.12497-8.17188q-.5156.60938-1.2187.98438-.70315.35937-1.5469.35937-1.1094 0-1.9375-.54687-.8125-.54688-1.2656-1.53126-.45315-.98437-.45315-2.1875 0-1.28124.48435-2.3125.5-1.03124 1.39065-1.5625.89065-.54687 2.09375-.54687 1.8906 0 2.9844 1.42187 1.10935 1.40626 1.10935 3.85938v.48438q0 3.73437-1.48435 5.45312-1.4688 1.71875-4.45315 1.76562h-.3125v-1.375h.34375q2-.03124 3.0781-1.04687 1.0938-1.01563 1.1875-3.21875Zm-2.5 0q.8125 0 1.5-.5t1-1.23438v-.65624q0-1.59376-.6875-2.59376-.6875-1.01562-1.75-1.01562-1.0781 0-1.73435.82812-.64065.82813-.64065 2.17188 0 1.29688.625 2.15625.625.84375 1.6875.84375Z" />
    <path class="graph__data-label" d="M566.19934 279.11926h-1.64064V268.2755l-3.2656 1.20314v-1.46874l4.65624-1.75h.25v12.85936Zm4.76563 2.54688-.92187-.625q.8281-1.15624.85937-2.375v-1.46874h1.59373v1.2656q0 .89064-.4375 1.78126-.42186.89064-1.09373 1.42188Zm12.15623-14.4375-5.29686 11.89062h-1.70314l5.28127-11.46876h-6.9375v-1.3281h8.65623v.90624Z" />
    <path
        class="graph__axis-labels"
        d="M29.910013 348.45h-1.578125v-10.0781q-.578125.54686-1.5 1.09374-.921875.53126-1.671875.8125v-1.53124q1.328125-.625 2.328125-1.51564 1-.89062 1.40625-1.71876h1.015625V348.45Zm62.757841-1.5156v1.5156H84.15223q-.015626-.5781.1875-1.09374.328124-.875 1.03125-1.71876.71875-.84374 2.078124-1.9531 2.09375-1.71876 2.828126-2.71876.75-1.01564.75-1.90624 0-.95314-.671876-1.59376-.671874-.64064-1.75-.64064-1.15625 0-1.84375.6875-.671874.6875-.6875 1.89064l-1.625-.17188q.171876-1.8125 1.25-2.76562 1.09375-.95314 2.9375-.95314t2.921876 1.03126q1.09375 1.03124 1.09375 2.54688 0 .76562-.328126 1.51562-.3125.75-1.046874 1.57814-.734376.8281-2.4375 2.2656-1.421876 1.20314-1.828126 1.625-.40625.4219-.65625.8594h6.3125Zm52.085976-1.89064 1.59375-.20312q.26562 1.34376.92187 1.9375.65625.59376 1.59375.59376 1.125 0 1.89063-.76564.76562-.78126.76562-1.92186 0-1.09376-.71875-1.7969-.70312-.71874-1.79687-.71874-.45313 0-1.125.1875l.17187-1.39062q.15625.01562.26563.01562 1 0 1.8125-.53126.8125-.53124.8125-1.625 0-.875-.59375-1.4375-.59375-.5781-1.51563-.5781-.92187 0-1.54687.5781-.60938.57814-.78125 1.75l-1.57813-.28124q.28125-1.59376 1.3125-2.46876t2.5625-.875q1.04688 0 1.9375.45314.89063.45312 1.35938 1.23436.46875.78126.46875 1.65626 0 .84374-.45313 1.53124-.4375.6719-1.32812 1.07814 1.14062.26562 1.76562 1.10936.64063.82814.64063 2.0625 0 1.6875-1.23438 2.875-1.21875 1.1719-3.09375 1.1719-1.70312 0-2.82812-1.01564-1.10938-1.01562-1.28125-2.625ZM210.2148 348.45v-3.0781h-5.57813v-1.45314l5.875-8.35936h1.29688v8.35936h1.73437v1.45314h-1.73437v3.0781h-1.59375Zm0-4.53124v-5.8125l-4.03125 5.8125h4.03125Zm55.33595 1.15624 1.65625-.1406q.1875 1.21874.85938 1.8281.67187.6094 1.625.6094 1.14062 0 1.92187-.8594.79688-.85936.79688-2.29686 0-1.34374-.76563-2.125-.75-.78124-1.98437-.78124-.76563 0-1.39063.34374-.60937.34376-.95312.90626l-1.48438-.20314 1.25-6.60936h6.40625v1.5h-5.14062l-.70313 3.46874q1.17188-.8125 2.4375-.8125 1.6875 0 2.84375 1.17186 1.17188 1.1719 1.17188 3 0 1.75-1.03125 3.03126-1.23438 1.5625-3.375 1.5625-1.76563 0-2.875-.98436-1.10938-.9844-1.26563-2.6094Zm68.60162-6.35936-1.5625.125q-.21875-.92188-.60937-1.34374-.64063-.6875-1.57813-.6875-.75 0-1.32812.42186-.75.54688-1.1875 1.59374-.42188 1.0469-.4375 2.9844.57812-.875 1.39062-1.2969.82813-.42186 1.73438-.42186 1.59375 0 2.70312 1.17186 1.10938 1.15626 1.10938 3 0 1.21876-.53125 2.26564-.51563 1.03126-1.4375 1.59376-.90625.54686-2.0625.54686-1.98438 0-3.23438-1.45312-1.25-1.45314-1.25-4.79688 0-3.73436 1.39063-5.4375 1.20312-1.46876 3.23437-1.46876 1.53125 0 2.5.8594.96875.84374 1.15625 2.34374Zm-6.45312 5.5625q0 .8125.34375 1.5625t.96875 1.14062q.625.39064 1.3125.39064 1 0 1.71875-.8125t.71875-2.20314q0-1.32812-.71875-2.09376-.70313-.78124-1.78125-.78124-1.07813 0-1.82813.78124-.73437.76564-.73437 2.01564Zm58.75785-7.03124v-1.51564h8.32812v1.23438q-1.21875 1.3125-2.4375 3.48436-1.20312 2.15626-1.85938 4.45314-.48437 1.625-.60937 3.54686h-1.625q.03125-1.5156.59375-3.67186.57812-2.15624 1.64062-4.15624 1.0625-2 2.26563-3.375h-6.29687Zm62.7266 4.21874q-.9844-.35938-1.46876-1.03124-.46874-.6719-.46874-1.59376 0-1.40624 1-2.35938 1.0156-.96876 2.7031-.96876t2.70314.9844q1.03126.96874 1.03126 2.375 0 .90624-.46876 1.5781-.46874.65626-1.42188 1.01564 1.1875.39062 1.79688 1.25.625.85936.625 2.04686 0 1.65626-1.17188 2.78126-1.17186 1.125-3.07812 1.125-1.90624 0-3.07814-1.125-1.15624-1.14062-1.15624-2.82812 0-1.25.625-2.09374.64064-.8594 1.82814-1.15626Zm-.32814-2.6875q0 .92186.59374 1.5.59376.57812 1.53126.57812.90624 0 1.48438-.57812.59376-.57814.59376-1.40624 0-.875-.6094-1.46876-.59374-.59374-1.48436-.59374-.90624 0-1.51564.5781-.59374.57814-.59374 1.39064Zm-.5 5.95312q0 .67188.3125 1.3125.32814.625.95314.98438.6406.34376 1.375.34376 1.125 0 1.85936-.7344.75-.73436.75-1.85936 0-1.14064-.76562-1.875-.76564-.75-1.90624-.75-1.1094 0-1.84376.73436-.73438.7344-.73438 1.84376Zm59.02347.73438 1.51562-.14064q.20313 1.07814.73438 1.5625.54687.4844 1.40625.4844.73437 0 1.28122-.32814.5469-.34376.89065-.89062.35935-.5625.59375-1.51564.2344-.9531.2344-1.9375v-.3125q-.4844.75-1.3125 1.21876-.81252.46874-1.76565.46874-1.59375 0-2.70312-1.15624-1.10938-1.15626-1.10938-3.0625 0-1.95312 1.15625-3.14062 1.15625-1.20314 2.89063-1.20314 1.26562 0 2.29687.6875 1.0469.6719 1.5781 1.9219.5469 1.25.5469 3.625 0 2.46874-.5469 3.9375-.5312 1.4531-1.5937 2.21874-1.0469.76562-2.46877.76562-1.51563 0-2.48438-.82812-.95312-.84374-1.14062-2.375Zm6.48437-5.6875q0-1.35938-.7344-2.15624-.7187-.7969-1.73435-.7969-1.0625 0-1.84375.8594-.78125.85936-.78125 2.23436 0 1.23438.73438 2 .75.76564 1.84375.76564 1.09372 0 1.79687-.76564.71875-.76562.71875-2.14062Zm54.6328 8.67186h-1.5781v-10.0781q-.57813.54686-1.5 1.09374-.9219.53126-1.6719.8125v-1.53124q1.32814-.625 2.32814-1.51564 1-.89062 1.40626-1.71876h1.0156V348.45Zm4.0469-6.35936q0-2.28124.46874-3.67188.46876-1.39062 1.39063-2.14062.9375-.76564 2.34373-.76564 1.03127 0 1.8125.4219.78127.40624 1.28127 1.2031.51563.78126.8125 1.9219.29687 1.125.29687 3.03124 0 2.26562-.46874 3.67186-.46876 1.39064-1.40626 2.15626-.92187.75-2.32814.75-1.875 0-2.9375-1.32812-1.2656-1.60938-1.2656-5.25Zm1.625 0q0 3.17186.73437 4.23436.75 1.0469 1.84373 1.0469 1.07814 0 1.82814-1.0469.75-1.0625.75-4.23436 0-3.17188-.75-4.21874-.75-1.0469-1.84374-1.0469-1.09376 0-1.75.9219-.8125 1.17186-.8125 4.34374Z"
    />
</svg>
