<svg fill="none" viewBox="0 0 600 371">
    <path class="graph__vertical-lines" d="M28.5 18.5v304m91-304v304m90-304v304m91-304v304m91-304v304m90-304v304m91-304v304"/>
    <path class="graph__data-line graph__data-line--lower" stroke-width="2" d="M28.37545 115.460335s6.04453 3.151555 9.066795 4.727335c3.022265 1.57577 6.044529 3.264105 9.066795 4.72733 3.022267 1.46322 6.044534 2.70133 9.066796 4.052 3.022267 1.35067 6.044534 2.81388 9.066794 4.052 3.02227 1.23811 6.044534 2.25111 9.0668 3.37666 3.02227 1.12556 6.04453 2.30739 9.06679 3.37668 3.02227 1.06927 6.044535 2.026 9.0668 3.039 3.02227 1.013 6.04453 2.08228 9.0668 3.03899 3.02226.95672 6.044526 1.85717 9.066796 2.70134 3.022264.84416 6.044524 1.57577 9.066794 2.36366 3.022264.78789 6.04453 1.57577 9.06679 2.36367 3.02228.7879 6.04454 1.63206 9.0668 2.36367 3.02226.73161 6.04453 1.35066 9.06679 2.026 3.02228.67533 6.04454 1.40693 9.06681 2.026 3.02226.61905 6.04452 1.06928 9.0668 1.68833 3.02226.61906 6.04452 1.40695 9.06678 2.026 3.02227.61906 6.04453 1.12556 9.06681 1.68834 3.02226.56277 6.04452 1.18182 9.06678 1.68832 3.02227.5065 6.04453.90045 9.06681 1.35068 3.02226.45022 6.04452.90043 9.06678 1.35066 3.02227.45023 6.04454.90045 9.06681 1.35066 3.02226.45023 6.04453.90045 9.06679 1.35068 3.02226.45021 6.04454.90044 9.0668 1.35066 3.02226.45023 6.04452.95673 9.06679 1.35066 3.02227.39396 6.04454.67534 9.0668 1.013 3.02228.33767 6.04452.61907 9.0668 1.013 3.02225.39396 6.04453.95673 9.06677 1.35067 3.02228.39395 6.04456.67534 9.06681 1.013 3.02227.33767 6.04452.73161 9.0668 1.013 3.02227.28139 6.04453.39395 9.0668.67534 3.02225.28138 6.04453.67533 9.06681 1.013 3.02224.33766 6.04452.73161 9.06676 1.013 3.0223.28138 6.04453.39393 9.0668.67533 3.0223.2814 6.04454.7316 9.0668 1.013 3.02226.2814 6.04454.45022 9.06682.67533 3.02225.22511 6.04452.45023 9.06678.67534 3.02227.22511 6.04455.45023 9.0668.67533 3.02227.2251 6.04452.45022 9.0668.67533 3.02227.22511 6.04452.45023 9.0668.67534 3.02225.22511 6.04452.45023 9.06677.67533 3.02228.2251 6.04456.45022 9.0668.67533 3.02228.22512 6.04453.45023 9.06681.67534 3.02228.22511 6.04452.45021 9.0668.67533 3.02225.2251 6.04452.5065 9.0668.67533 3.02225.16884 6.04452.16884 9.06678.33767 3.02227.16883 6.04452.5065 9.0668.67533 3.02228.16884 6.04452.16884 9.0668.33767 3.02224.16883 6.04454.5065 9.06681.67533 3.02223.16884 6.04453.16884 9.06677.33767 3.02228.16883 6.04456.5065 9.0668.67533 3.02228.16884 6.04453.16884 9.0668.33767 3.02228.16883 6.04453.5065 9.06681.67534 3.02225.16883 6.04452.22511 9.06677.33766 3.02228.11256 6.04452.16884 9.06678.33767 3.0223.16883 6.0446.5065 9.0668.67533 3.0223.16884 6.04455.22511 9.0668.33766 3.0223.11256 6.0445.22511 9.0668.33768 3.0223.11255 6.04456.22511 9.06683.33766 3.02222.11256 6.04447.22511 9.06677.33766 3.0223.11256 6.04456.16884 9.0668.33768 3.02226.16882 6.04453.5065 9.0668.67532 3.0223.16884 6.0445.22511 9.0668.33768 3.02226.11255 6.04454.22511 9.0668.33766 3.02223.11256 6.0445.22511 9.0668.33766 3.02227.11256 9.06676.33768 9.06676.33768m0 0"/>
    <path class="graph__data-line graph__data-line--upper" stroke-width="2" d="M28.37545 59.745335S34.41998 66.89261 37.442245 70.213c3.022265 3.32039 6.044529 6.471944 9.066795 9.45466 3.022267 2.98273 6.044534 5.79662 9.066796 8.44168 3.022267 2.64505 6.044534 5.12127 9.066794 7.42866 3.02227 2.30739 6.044534 4.33339 9.0668 6.41567 3.02227 2.08227 6.04453 4.10827 9.06679 6.078 3.02227 1.96972 6.044535 3.99572 9.0668 5.74033 3.02227 1.74461 6.04453 3.15155 9.0668 4.72734 3.02226 1.57577 6.044526 3.20783 9.066796 4.72733 3.022264 1.5195 6.044524 3.03899 9.066794 4.38966 3.022264 1.35067 6.04453 2.47623 9.06679 3.71434 3.02228 1.2381 6.04454 2.53249 9.0668 3.71433 3.02226 1.18184 6.04453 2.30739 9.06679 3.37666 3.02228 1.06929 6.04454 2.026 9.06681 3.039 3.02226 1.013 6.04452 2.08228 9.0668 3.039 3.02226.95673 6.04452 1.80089 9.06678 2.70134 3.02227.90044 6.04453 1.85717 9.06681 2.70133 3.02226.84417 6.04452 1.63207 9.06678 2.36367 3.02227.7316 6.04453 1.2944 9.06681 2.026 3.02226.7316 6.04452 1.63206 9.06678 2.36367 3.02227.73161 6.04454 1.40693 9.06681 2.026 3.02226.61905 6.04453 1.06928 9.06679 1.68833 3.02226.61906 6.04454 1.40695 9.0668 2.026 3.02226.61906 6.04452 1.12556 9.06679 1.68834 3.02227.56277 6.04454 1.18182 9.0668 1.68832 3.02228.5065 6.04452.84418 9.0668 1.35068 3.02225.5065 6.04453 1.18182 9.06677 1.68832 3.02228.5065 6.04456.90045 9.06681 1.35068 3.02227.45021 6.04452.90043 9.0668 1.35066 3.02227.45023 6.04453.95673 9.0668 1.35066 3.02225.39395 6.04453.61907 9.06681 1.013 3.02224.39395 6.04452.95673 9.06676 1.35068 3.0223.39394 6.04453.67532 9.0668 1.01299 3.0223.33767 6.04454.67533 9.0668 1.013 3.02226.33767 6.04454.67534 9.06682 1.013 3.02225.33767 6.04452.67534 9.06678 1.013 3.02227.33767 6.04455.67534 9.0668 1.013 3.02227.33767 6.04452.73161 9.0668 1.013 3.02227.28139 6.04452.39395 9.0668.67534 3.02225.28138 6.04452.73161 9.06677 1.013 3.02228.28138 6.04456.39393 9.0668.67533 3.02228.2814 6.04453.7316 9.06681 1.013 3.02228.2814 6.04452.45022 9.0668.67533 3.02225.22511 6.04452.45023 9.0668.67534 3.02225.22511 6.04452.45023 9.06678.67533 3.02227.2251 6.04452.45022 9.0668.67533 3.02228.22511 6.04452.45023 9.0668.67534 3.02224.22511 6.04454.45023 9.06681.67533 3.02223.2251 6.04453.45022 9.06677.67533 3.02228.22512 6.04456.45023 9.0668.67534 3.02228.22511 6.04453.45021 9.0668.67533 3.02228.2251 6.04453.5065 9.06681.67533 3.02225.16884 6.04452.16884 9.06677.33767 3.02228.16883 6.04452.5065 9.06678.67533 3.0223.16884 6.0446.16884 9.0668.33767 3.0223.16883 6.04455.5065 9.0668.67533 3.0223.16884 6.0445.16884 9.0668.33767 3.0223.16883 6.04456.5065 9.06683.67533 3.02222.16884 6.04447.22512 9.06677.33767 3.0223.11256 6.04456.16883 9.0668.33767 3.02226.16883 6.04453.5065 9.0668.67533 3.0223.16884 6.0445.22511 9.0668.33767 3.02226.11255 6.04454.16883 9.0668.33767 3.02223.16883 6.0445.5065 9.0668.67532 3.02227.16884 9.06676.33768 9.06676.33768m0 0"/>
    <path class="graph__data-points graph__data-points--lower" d="M28.37545 115.460335Zm9.066795 4.727335Zm9.066795 4.72733Zm9.066796 4.052Zm9.066794 4.052Zm9.0668 3.37666Zm9.06679 3.37668Zm9.0668 3.039Zm9.0668 3.03899Zm9.066796 2.70134Zm9.066794 2.36366Zm9.06679 2.36367Zm9.0668 2.36367Zm9.06679 2.026Zm9.06681 2.026Zm9.0668 1.68833Zm9.06678 2.026Zm9.06681 1.68834Zm9.06678 1.68832Zm9.06681 1.35068Zm9.06678 1.35066Zm9.06681 1.35066Zm9.06679 1.35068Zm9.0668 1.35066Zm9.06679 1.35066Zm9.0668 1.013Zm9.0668 1.013Zm9.06677 1.35067Zm9.06681 1.013Zm9.0668 1.013Zm9.0668.67534Zm9.06681 1.013Zm9.06676 1.013Zm9.0668.67533Zm9.0668 1.013Zm9.06682.67533Zm9.06678.67534Zm9.0668.67533Zm9.0668.67533Zm9.0668.67534Zm9.06677.67533Zm9.0668.67533Zm9.06681.67534Zm9.0668.67533Zm9.0668.67533Zm9.06678.33767Zm9.0668.67533Zm9.0668.33767Zm9.06681.67533Zm9.06677.33767Zm9.0668.67533Zm9.0668.33767Zm9.06681.67534Zm9.06677.33766Zm9.06678.33767Zm9.0668.67533Zm9.0668.33766Zm9.0668.33768Zm9.06683.33766Zm9.06677.33766Zm9.0668.33768Zm9.0668.67532Zm9.0668.33768Zm9.0668.33766Zm9.0668.33766Zm9.06676.33768ZM34.37545 115.460335c0 3.313705-2.686293 6-6 6-3.31371 0-6-2.686295-6-6 0-3.313715 2.68629-6 6-6 3.313707 0 6 2.686285 6 6Z"/>
    <path class="graph__data-points graph__data-points--lower" d="M125.04341 150.91533c0 3.3137-2.68629 6-6 6s-6-2.6863-6-6c0-3.31371 2.68629-6 6-6s6 2.68629 6 6Z"/>
    <path class="graph__data-points graph__data-points--lower" d="M215.71136 169.487c0 3.3137-2.68629 6-6 6-3.3137 0-6-2.6863-6-6s2.6863-6 6-6c3.31371 0 6 2.6863 6 6Z"/>
    <path class="graph__data-points graph__data-points--lower" d="M306.37933 180.96767c0 3.3137-2.68631 6-6 6-3.31373 0-6-2.6863-6-6 0-3.31371 2.68627-6 6-6 3.31369 0 6 2.68629 6 6Z"/>
    <path class="graph__data-points graph__data-points--special" d="M397.04727 188.734c0 3.31371-2.68627 6-6 6-3.31369 0-6-2.68629-6-6s2.68631-6 6-6c3.31373 0 6 2.68629 6 6Z"/>
    <path class="graph__data-points graph__data-points--lower" d="M487.71524 194.47433c0 3.31371-2.68628 6-6 6-3.31369 0-6-2.68629-6-6 0-3.3137 2.68631-6 6-6 3.31372 0 6 2.6863 6 6Z"/>
    <path class="graph__data-points graph__data-points--lower" d="M578.3832 198.52634c0 3.3137-2.6863 6-6 6s-6-2.6863-6-6c0-3.31371 2.6863-6 6-6s6 2.68629 6 6Zm45.33396 2.026c0 3.3137-2.68626 6-6 6-3.31366 0-6-2.6863-6-6 0-3.31371 2.68634-6 6-6 3.31374 0 6 2.68629 6 6Z"/>
    <path class="graph__data-points graph__data-points--upper" d="M34.37545 59.745335c0 3.313705-2.686293 5.999995-6 5.999995-3.31371 0-6-2.68629-6-5.999995 0-3.31371 2.68629-6 6-6 3.313707 0 6 2.68629 6 6Z"/>
    <path class="graph__data-points graph__data-points--upper" d="M125.04341 127.61633c0 3.31371-2.68629 6-6 6s-6-2.68629-6-6c0-3.3137 2.68629-6 6-6s6 2.6863 6 6Z"/>
    <path class="graph__data-points graph__data-points--upper" d="M215.71136 156.65567c0 3.31371-2.68629 6-6 6-3.3137 0-6-2.68629-6-6s2.6863-6 6-6c3.31371 0 6 2.68629 6 6Z"/>
    <path class="graph__data-points graph__data-points--upper" d="M306.37933 172.86366c0 3.31371-2.68631 6-6 6-3.31373 0-6-2.68629-6-6 0-3.3137 2.68627-6 6-6 3.31369 0 6 2.6863 6 6Z"/>
    <path class="graph__data-points graph__data-points--special" d="M397.04727 182.99367c0 3.3137-2.68627 6-6 6-3.31369 0-6-2.6863-6-6 0-3.31371 2.68631-6 6-6 3.31373 0 6 2.68629 6 6Z"/>
    <path class="graph__data-points graph__data-points--upper" d="M487.71524 190.08467c0 3.31371-2.68628 6-6 6-3.31369 0-6-2.68629-6-6 0-3.3137 2.68631-6 6-6 3.31372 0 6 2.6863 6 6Z"/>
    <path class="graph__data-points graph__data-points--upper" d="M578.3832 195.14967c0 3.31371-2.6863 6-6 6s-6-2.68629-6-6c0-3.31372 2.6863-6 6-6s6 2.68628 6 6Zm45.33396 2.36367c0 3.3137-2.68626 6-6 6-3.31366 0-6-2.6863-6-6 0-3.31371 2.68634-6 6-6 3.31374 0 6 2.68629 6 6Z"/>
    <path class="graph__data-label graph__data-label--lower" d="M19.31295 137.64783v1.39062h-.296875q-1.890625.03125-3.015625 1.125-1.125001 1.07813-1.296876 3.0625 1-1.15625 2.750001-1.15625 1.671875 0 2.671875 1.1875 1 1.17188 1 3.03125 0 1.96875-1.078125 3.15625t-2.890625 1.1875q-1.828126 0-2.984376-1.40625-1.140625-1.40625-1.140625-3.64062v-.625q0-3.53125 1.5-5.39063 1.515626-1.875 4.500001-1.92187h.28125Zm-2.125 5.76562q-.84375 0-1.546876.51563-.703125.5-.96875 1.25v.59375q0 1.57812.703125 2.54687.718751.96875 1.781251.96875 1.09375 0 1.71875-.79687.640625-.8125.640625-2.125 0-1.32813-.640625-2.14063-.640625-.8125-1.6875-.8125Zm11.09375 7.04688h-1.640625v-10.84375l-3.265625 1.20312v-1.46875l4.65625-1.75h.25v12.85938Zm4.515625-10.34375q0-1.14063.734375-1.89063t1.890625-.75q1.171875 0 1.890625.75t.71875 1.95313v.625q0 1.15625-.734375 1.89062-.734375.73438-1.859375.73438-1.140625 0-1.890625-.73438-.75-.73437-.75-1.95312v-.625Zm1.21875.6875q0 .6875.375 1.125.390625.4375 1.046875.4375.625 0 1-.42188.390625-.4375.390625-1.17187v-.65625q0-.67188-.390625-1.125-.375-.45313-1.03125-.45313-.640625 0-1.015625.45313-.375.45312-.375 1.17187v.64063Zm5.015625 6.51562q0-1.15625.734375-1.89062.734375-.75 1.875-.75 1.15625 0 1.890625.75.75.73437.75 1.95312v.625q0 1.15625-.734375 1.90625-.734375.73438-1.875.73438t-1.890625-.73438q-.75-.73437-.75-1.95312v-.64063Zm1.21875.6875q0 .6875.375 1.14063.390625.4375 1.046875.4375.625 0 1-.42188.390625-.4375.390625-1.1875v-.65625q0-.6875-.390625-1.125-.375-.45312-1.015625-.45312-.625 0-1.015625.4375t-.390625 1.17187v.65625Zm-4.453125 1.48438-.921875-.57813 6.25-10 .921875.57813-6.25 10Z"/>
    <path class="graph__data-label graph__data-label--lower" d="m104.35591 179.49345.65625-6.375h6.54688v1.5h-5.17188l-.39062 3.48438q.9375-.54688 2.14062-.54688 1.75 0 2.76563 1.15625 1.03125 1.15625 1.03125 3.125 0 1.98438-1.0625 3.125-1.0625 1.125-2.98438 1.125-1.70312 0-2.78125-.9375-1.0625-.9375-1.20312-2.59375h1.53125q.15625 1.09375.78125 1.65625.64062.54688 1.67187.54688 1.14063 0 1.78125-.76563.64063-.78125.64063-2.14062 0-1.28125-.70313-2.0625-.6875-.78125-1.84375-.78125-1.0625 0-1.67187.46875l-.4375.35937-1.29688-.34375Zm14.59375 6.42188h-1.64062v-10.84375l-3.26563 1.20312v-1.46875l4.65625-1.75h.25v12.85938Zm4.51563-10.34375q0-1.14063.73437-1.89063.73438-.75 1.89063-.75 1.17187 0 1.89062.75t.71875 1.95313v.625q0 1.15625-.73437 1.89062-.73438.73438-1.85938.73438-1.14062 0-1.89062-.73438-.75-.73437-.75-1.95312v-.625Zm1.21875.6875q0 .6875.375 1.125.39062.4375 1.04687.4375.625 0 1-.42188.39063-.4375.39063-1.17187v-.65625q0-.67188-.39063-1.125-.375-.45313-1.03125-.45313-.64062 0-1.01562.45313-.375.45312-.375 1.17187v.64063Zm5.01562 6.51562q0-1.15625.73438-1.89062.73437-.75 1.875-.75 1.15625 0 1.89062.75.75.73437.75 1.95312v.625q0 1.15625-.73437 1.90625-.73438.73438-1.875.73438-1.14063 0-1.89063-.73438-.75-.73437-.75-1.95312v-.64063Zm1.21875.6875q0 .6875.375 1.14063.39063.4375 1.04688.4375.625 0 1-.42188.39062-.4375.39062-1.1875v-.65625q0-.6875-.39062-1.125-.375-.45312-1.01563-.45312-.625 0-1.01562.4375-.39063.4375-.39063 1.17187v.65625Zm-4.45312 1.48438-.92188-.57813 6.25-10 .92188.57813-6.25 10Z"/>
    <path class="graph__data-label graph__data-label--lower" d="M201.13324 200.19012h1.78125v1.32813h-1.78125v2.96875h-1.625v-2.96875h-5.82813v-.95313l5.73438-8.875h1.71875v8.5Zm-5.60938 0h3.98438v-6.28125l-.20313.35938-3.78125 5.92187Zm9.5-2.125.65625-6.375h6.54688v1.5h-5.17188l-.39062 3.48438q.9375-.54688 2.14062-.54688 1.75 0 2.76563 1.15625 1.03125 1.15625 1.03125 3.125 0 1.98438-1.0625 3.125-1.0625 1.125-2.98438 1.125-1.70312 0-2.78125-.9375-1.0625-.9375-1.20312-2.59375h1.53125q.15625 1.09375.78125 1.65625.64062.54688 1.67187.54688 1.14063 0 1.78125-.76563.64063-.78125.64063-2.14062 0-1.28125-.70313-2.0625-.6875-.78125-1.84375-.78125-1.0625 0-1.67187.46875l-.4375.35937-1.29688-.34375Zm9.10938-3.92187q0-1.14063.73437-1.89063.73438-.75 1.89063-.75 1.17187 0 1.89062.75t.71875 1.95313v.625q0 1.15625-.73437 1.89062-.73438.73438-1.85938.73438-1.14062 0-1.89062-.73438-.75-.73437-.75-1.95312v-.625Zm1.21875.6875q0 .6875.375 1.125.39062.4375 1.04687.4375.625 0 1-.42188.39063-.4375.39063-1.17187v-.65625q0-.67188-.39063-1.125-.375-.45313-1.03125-.45313-.64062 0-1.01562.45313-.375.45312-.375 1.17187v.64063Zm5.01562 6.51562q0-1.15625.73438-1.89062.73437-.75 1.875-.75 1.15625 0 1.89062.75.75.73437.75 1.95312v.625q0 1.15625-.73437 1.90625-.73438.73438-1.875.73438-1.14063 0-1.89063-.73438-.75-.73437-.75-1.95312v-.64063Zm1.21875.6875q0 .6875.375 1.14063.39063.4375 1.04688.4375.625 0 1-.42188.39062-.4375.39062-1.1875v-.65625q0-.6875-.39062-1.125-.375-.45312-1.01563-.45312-.625 0-1.01562.4375-.39063.4375-.39063 1.17187v.65625Zm-4.45312 1.48438-.92188-.57813 6.25-10 .92188.57813-6.25 10Z"/>
    <path class="graph__data-label graph__data-label--lower" d="M291.8012 211.67079h1.78126v1.32813h-1.78126v2.96875h-1.625v-2.96875h-5.82812v-.95313l5.73438-8.875h1.71874v8.5Zm-5.60937 0h3.98437v-6.28125l-.20312.35938-3.78125 5.92187Zm17.14063 4.29688h-8.39063v-1.17188l4.4375-4.92187q.98437-1.10938 1.34375-1.8125.375-.70313.375-1.45313 0-1-.60938-1.64062-.59374-.64063-1.60937-.64063-1.21875 0-1.89063.70313-.67187.6875-.67187 1.90625h-1.625q0-1.76563 1.14063-2.84375 1.14062-1.09375 3.04687-1.09375 1.78125 0 2.8125.9375 1.04687.9375 1.04687 2.48437 0 1.89063-2.40624 4.5l-3.42188 3.71875h6.42188v1.32813Zm1.46874-10.34375q0-1.14063.73438-1.89063t1.89062-.75q1.17188 0 1.89063.75t.71875 1.95313v.625q0 1.15625-.73438 1.89062-.73437.73438-1.85937.73438-1.14063 0-1.89063-.73438-.75-.73437-.75-1.95312v-.625Zm1.21876.6875q0 .6875.375 1.125.39062.4375 1.04687.4375.625 0 1-.42188.39063-.4375.39063-1.17187v-.65625q0-.67188-.39063-1.125-.375-.45313-1.03125-.45313-.64062 0-1.01562.45313-.375.45312-.375 1.17187v.64063Zm5.01562 6.51562q0-1.15625.73438-1.89062.73437-.75 1.875-.75 1.15624 0 1.89062.75.75.73437.75 1.95312v.625q0 1.15625-.73438 1.90625-.73437.73438-1.875.73438-1.14062 0-1.89062-.73438-.75-.73437-.75-1.95312v-.64063Zm1.21875.6875q0 .6875.375 1.14063.39063.4375 1.04687.4375.625 0 1-.42188.39063-.4375.39063-1.1875v-.65625q0-.6875-.39063-1.125-.375-.45312-1.01562-.45312-.625 0-1.01562.4375-.39063.4375-.39063 1.17187v.65625Zm-4.45313 1.48438-.92187-.57813 6.25-10 .92187.57813-6.25 10Z"/>
    <path class="graph__data-label graph__data-label--lower" d="M382.46915 219.43712h1.78125v1.32812h-1.78125v2.96876h-1.625v-2.96876h-5.82813v-.95312l5.73438-8.875h1.71875v8.5Zm-5.60938 0h3.98438v-6.28125l-.20313.35937-3.78125 5.92188Zm16.78125-1.15625q0 2.84375-.98437 4.23437-.96875 1.39063-3.04688 1.39063-2.04687 0-3.03125-1.35937-.98437-1.35938-1.01562-4.04688v-2.17188q0-2.82812.96875-4.1875.98437-1.375 3.0625-1.375 2.0625 0 3.03125 1.32813.98437 1.3125 1.01562 4.07813v2.10937Zm-1.625-2.23437q0-2.0625-.59375-3-.57812-.95313-1.82812-.95313t-1.82813.95313q-.5625.9375-.57812 2.875v2.60937q0 2.07813.59375 3.0625.60937.98437 1.82812.98437 1.20313 0 1.78125-.92187.59375-.9375.625-2.9375v-2.67187Zm3.45313-2.65626q0-1.14062.73437-1.89062.73438-.75 1.89063-.75 1.17187 0 1.89062.75t.71875 1.95312v.625q0 1.15626-.73437 1.89063-.73438.73437-1.85938.73437-1.14062 0-1.89062-.73437t-.75-1.95313v-.625Zm1.21875.6875q0 .6875.375 1.125.39062.4375 1.04687.4375.625 0 1-.42187.39063-.4375.39063-1.17187v-.65626q0-.67187-.39063-1.125-.375-.45312-1.03125-.45312-.64062 0-1.01562.45312-.375.45313-.375 1.17188v.64062Zm5.01562 6.51563q0-1.15625.73438-1.89063.73437-.75 1.875-.75 1.15625 0 1.89062.75.75.73438.75 1.95313v.625q0 1.15625-.73437 1.90625-.73438.73438-1.875.73438-1.14063 0-1.89063-.73438t-.75-1.95312v-.64063Zm1.21875.6875q0 .6875.375 1.14063.39063.4375 1.04688.4375.625 0 1-.42188.39062-.4375.39062-1.1875v-.65625q0-.6875-.39062-1.125-.375-.45313-1.01563-.45313-.625 0-1.01562.4375-.39063.4375-.39063 1.17188v.65625Zm-4.45312 1.48437-.92188-.57812 6.25-10 .92188.57812-6.25 10Z"/>
    <path class="graph__data-label graph__data-label--lower" d="M468.63712 222.28683h1.23438q1.14062-.01562 1.79687-.60937.67187-.59375.67187-1.59375 0-2.25-2.25-2.25-1.04687 0-1.6875.60937-.625.59375-.625 1.59375h-1.625q0-1.51562 1.10938-2.51562 1.125-1.01563 2.82812-1.01563 1.8125 0 2.84376.95313 1.03124.95312 1.03124 2.65625 0 .84375-.54687 1.625-.53125.78125-1.46875 1.17187 1.04688.32813 1.625 1.10938.57812.76562.57812 1.89062 0 1.71875-1.125 2.73438-1.125 1-2.9375 1-1.79687 0-2.92187-.96875-1.125-.98438-1.125-2.57813h1.64063q0 1.01563.65624 1.625.65626.59375 1.76563.59375 1.17187 0 1.79687-.60937.625-.60938.625-1.76563 0-1.125-.6875-1.71875t-1.96874-.60937h-1.23438v-1.32813Zm15.40625-2.26562q0 .95312-.51563 1.70312-.5.75-1.35937 1.17188 1 .42187 1.57813 1.25.59374.82812.59374 1.875 0 1.65625-1.125 2.64062-1.125.98438-2.95312.98438-1.84375 0-2.95312-.98438-1.10938-.98437-1.10938-2.64062 0-1.03125.5625-1.85938.57812-.84375 1.57812-1.28125-.85937-.42187-1.35937-1.17187-.48437-.75-.48437-1.6875 0-1.625 1.03124-2.5625 1.04688-.95313 2.73438-.95313 1.6875 0 2.73438.95313 1.04687.9375 1.04687 2.5625Zm-1.32813 5.96875q0-1.07813-.6875-1.75-.67187-.6875-1.78124-.6875-1.09376 0-1.76563.67187-.65625.67188-.65625 1.76563 0 1.07812.64062 1.70312.65626.625 1.79688.625 1.15625 0 1.79688-.625.65624-.625.65624-1.70312Zm-2.45312-8.15625q-.95312 0-1.54688.59375-.59374.59375-.59374 1.60937 0 .98438.57812 1.59375.59375.59375 1.5625.59375.98438 0 1.5625-.59375.59375-.60937.59375-1.57812 0-.98438-.60937-1.59375-.60938-.625-1.54688-.625Zm5.875 1.29687q0-1.14062.73438-1.89062.73437-.75 1.89062-.75 1.17188 0 1.89062.75.71876.75.71876 1.95312v.625q0 1.15625-.73438 1.89063-.73438.73437-1.85938.73437-1.14062 0-1.89062-.73437-.75-.73438-.75-1.95313v-.625Zm1.21875.6875q0 .6875.375 1.125.39063.4375 1.04687.4375.625 0 1-.42187.39063-.4375.39063-1.17188v-.65625q0-.67187-.39063-1.125-.375-.45312-1.03124-.45312-.64063 0-1.01563.45312-.375.45313-.375 1.17188v.64062Zm5.01563 6.51563q0-1.15625.73437-1.89063.73437-.75 1.875-.75 1.15625 0 1.89063.75.75.73438.75 1.95313v.625q0 1.15625-.73438 1.90625-.73438.73437-1.875.73437t-1.89062-.73437q-.75-.73438-.75-1.95313v-.64062Zm1.21874.6875q0 .6875.375 1.14062.39063.4375 1.04688.4375.625 0 1-.42187.39062-.4375.39062-1.1875v-.65625q0-.6875-.39062-1.125-.375-.45313-1.01562-.45313-.625 0-1.01563.4375-.39063.4375-.39063 1.17188v.65625Zm-4.45312 1.48437-.92188-.57812 6.25-10 .92188.57812-6.25 10Z"/>
    <path class="graph__data-label graph__data-label--lower" d="M559.30505 226.33884h1.23435q1.14065-.01563 1.7969-.60938.6719-.59375.6719-1.59375 0-2.25-2.25-2.25-1.0469 0-1.6875.60938-.625.59375-.625 1.59375h-1.625q0-1.51563 1.10935-2.51563 1.125-1.01562 2.82815-1.01562 1.8125 0 2.8437.95312 1.0313.95313 1.0313 2.65625 0 .84375-.5469 1.625-.53125.78125-1.46875 1.17188 1.04685.32812 1.625 1.10937.57815.76563.57815 1.89063 0 1.71875-1.125 2.73437-1.125 1-2.9375 1-1.7969 0-2.9219-.96875-1.125-.98437-1.125-2.57812h1.6406q0 1.01562.6563 1.625.6562.59375 1.7656.59375 1.1719 0 1.7969-.60938.625-.60937.625-1.76562 0-1.125-.6875-1.71875t-1.9688-.60938h-1.23435v-1.32812Zm15.90625-4.70313-5.2969 11.89063h-1.7031l5.28125-11.46875h-6.9375v-1.32813h8.65625v.90625Zm1.59375 1.54688q0-1.14063.73435-1.89063.7344-.75 1.89065-.75 1.17185 0 1.89065.75.7187.75.7187 1.95313v.625q0 1.15625-.73435 1.89062-.73435.73438-1.85935.73438-1.14065 0-1.89065-.73438-.75-.73437-.75-1.95312v-.625Zm1.21875.6875q0 .6875.375 1.125.3906.4375 1.0469.4375.625 0 1-.42188.3906-.4375.3906-1.17187v-.65625q0-.67188-.3906-1.125-.375-.45313-1.0313-.45313-.6406 0-1.0156.45313-.375.45312-.375 1.17187v.64063Zm5.0156 6.51562q0-1.15625.7344-1.89062.7344-.75 1.875-.75 1.15625 0 1.8906.75.75.73437.75 1.95312v.625q0 1.15625-.73435 1.90625-.73435.73438-1.875.73438t-1.89065-.73438q-.75-.73437-.75-1.95312v-.64063Zm1.2188.6875q0 .6875.375 1.14063.3906.4375 1.04685.4375.625 0 1-.42188.39065-.4375.39065-1.1875v-.65625q0-.6875-.39065-1.125-.375-.45312-1.01565-.45312-.625 0-1.0156.4375-.3906.4375-.3906 1.17187v.65625Zm-4.45315 1.48438-.92185-.57813 6.25-10 .92185.57813-6.25 10Z"/>
    <path class="graph__data-label graph__data-label--lower" d="M604.63904 228.36484h1.23436q1.14064-.01563 1.7969-.60938.67186-.59375.67186-1.59375 0-2.25-2.25-2.25-1.04686 0-1.6875.60938-.625.59375-.625 1.59375h-1.625q0-1.51563 1.10938-2.51563 1.125-1.01562 2.82812-1.01562 1.8125 0 2.84374.95312 1.03126.95313 1.03126 2.65625 0 .84375-.54686 1.625-.53126.78125-1.46876 1.17188 1.04686.32812 1.625 1.10937.57812.76563.57812 1.89063 0 1.71875-1.125 2.73437-1.125 1-2.9375 1-1.79686 0-2.92186-.96875-1.125-.98437-1.125-2.57812h1.6406q0 1.01562.65626 1.625.65624.59375 1.76564.59375 1.17186 0 1.79686-.60938.625-.60937.625-1.76562 0-1.125-.6875-1.71875t-1.96876-.60938h-1.23436v-1.32812Zm14.01562-5.625v1.39062h-.29686q-1.89064.03125-3.01564 1.125-1.125 1.07813-1.29686 3.0625 1-1.15625 2.75-1.15625 1.67186 0 2.67186 1.1875 1 1.17188 1 3.03125 0 1.96875-1.07812 3.15625-1.07814 1.1875-2.89064 1.1875-1.8281 0-2.98436-1.40625-1.14064-1.40625-1.14064-3.64062v-.625q0-3.53125 1.5-5.39063 1.51564-1.875 4.5-1.92187h.28126Zm-2.125 5.76562q-.84376 0-1.54686.51563-.70314.5-.96876 1.25v.59375q0 1.57812.70312 2.54687.71874.96875 1.78124.96875 1.09376 0 1.71876-.79687.64064-.8125.64064-2.125 0-1.32813-.64064-2.14063-.64062-.8125-1.6875-.8125Zm5.60938-3.29687q0-1.14063.73436-1.89063.7344-.75 1.89064-.75 1.17186 0 1.89062.75.71874.75.71874 1.95313v.625q0 1.15625-.73436 1.89062-.73438.73438-1.85938.73438-1.14062 0-1.89062-.73438-.75-.73437-.75-1.95312v-.625Zm1.21876.6875q0 .6875.375 1.125.3906.4375 1.04686.4375.625 0 1-.42188.39064-.4375.39064-1.17187v-.65625q0-.67188-.39064-1.125-.375-.45313-1.03126-.45313-.6406 0-1.0156.45313-.375.45312-.375 1.17187v.64063Zm5.0156 6.51562q0-1.15625.7344-1.89062.73436-.75 1.875-.75 1.15624 0 1.8906.75.75.73437.75 1.95312v.625q0 1.15625-.73436 1.90625-.73438.73438-1.875.73438-1.14064 0-1.89064-.73438-.75-.73437-.75-1.95312v-.64063Zm1.21876.6875q0 .6875.375 1.14063.39064.4375 1.04688.4375.625 0 1-.42188.39062-.4375.39062-1.1875v-.65625q0-.6875-.39062-1.125-.375-.45312-1.01564-.45312-.625 0-1.0156.4375-.39064.4375-.39064 1.17187v.65625Zm-4.45312 1.48438-.92188-.57813 6.25-10 .92188.57813-6.25 10Z"/>
    <path class="graph__data-label graph__data-label--upper" d="m21.203575 29.85471-5.296876 11.890625h-1.703125l5.281251-11.46875h-6.937501V28.94846h8.656251v.90625Zm9.5 2.4375q0 .953125-.515625 1.703125-.5.75-1.359375 1.171875 1 .421875 1.578125 1.25.59375.828125.59375 1.875 0 1.65625-1.125 2.640625t-2.953125.984375q-1.84375 0-2.953125-.984375t-1.109375-2.640625q0-1.03125.5625-1.859375.578125-.84375 1.578125-1.28125-.859375-.421875-1.359375-1.171875-.484375-.75-.484375-1.6875 0-1.625 1.03125-2.5625 1.046875-.953125 2.734375-.953125t2.734375.953125q1.046875.9375 1.046875 2.5625Zm-1.328125 5.96875q0-1.078125-.6875-1.75-.671875-.6875-1.78125-.6875-1.09375 0-1.765625.671875-.65625.671875-.65625 1.765625 0 1.078125.640625 1.703125.65625.625 1.796875.625 1.15625 0 1.796875-.625.65625-.625.65625-1.703125Zm-2.453125-8.15625q-.953125 0-1.546875.59375t-.59375 1.609375q0 .984375.578125 1.59375.59375.59375 1.5625.59375.984375 0 1.5625-.59375.59375-.609375.59375-1.578125 0-.984375-.609375-1.59375-.609375-.625-1.546875-.625Zm5.875 1.296875q0-1.140625.734375-1.890625t1.890625-.75q1.171875 0 1.890625.75t.71875 1.953125v.625q0 1.15625-.734375 1.890625t-1.859375.734375q-1.140625 0-1.890625-.734375t-.75-1.953125v-.625Zm1.21875.6875q0 .6875.375 1.125.390625.4375 1.046875.4375.625 0 1-.421875.390625-.4375.390625-1.171875v-.65625q0-.671875-.390625-1.125-.375-.453125-1.03125-.453125-.640625 0-1.015625.453125t-.375 1.171875v.640625ZM39.0317 38.60471q0-1.15625.734375-1.890625.734375-.75 1.875-.75 1.15625 0 1.890625.75.75.734375.75 1.953125v.625q0 1.15625-.734375 1.90625-.734375.734375-1.875.734375T39.7817 41.19846q-.75-.734375-.75-1.953125v-.640625Zm1.21875.6875q0 .6875.375 1.140625.390625.4375 1.046875.4375.625 0 1-.421875.390625-.4375.390625-1.1875v-.65625q0-.6875-.390625-1.125-.375-.453125-1.015625-.453125-.625 0-1.015625.4375t-.390625 1.171875v.65625Zm-4.453125 1.484375-.921875-.578125 6.25-10 .921875.578125-6.25 10Zm68.558585 62.417875.65625-6.375h6.54688v1.5h-5.17188l-.39062 3.48437q.9375-.54687 2.14062-.54687 1.75 0 2.76563 1.15625 1.03125 1.15625 1.03125 3.125 0 1.98437-1.0625 3.125-1.0625 1.125-2.98438 1.125-1.70312 0-2.78125-.9375-1.0625-.9375-1.20312-2.59375h1.53125q.15625 1.09375.78125 1.65625.64062.54687 1.67187.54687 1.14063 0 1.78125-.76562.64063-.78125.64063-2.14063 0-1.28125-.70313-2.0625-.6875-.78125-1.84375-.78125-1.0625 0-1.67187.46875l-.4375.35938-1.29688-.34375Zm17.01563-3.03125q0 .95312-.51563 1.70312-.5.75-1.35937 1.17188 1 .42187 1.57812 1.25.59375.82812.59375 1.875 0 1.65625-1.125 2.64062-1.125.98438-2.95312.98438-1.84375 0-2.95313-.98438-1.10937-.98437-1.10937-2.64062 0-1.03125.5625-1.85938.57812-.84375 1.57812-1.28125-.85937-.42187-1.35937-1.17187-.48438-.75-.48438-1.6875 0-1.625 1.03125-2.5625 1.04688-.95313 2.73438-.95313 1.6875 0 2.73437.95313 1.04688.9375 1.04688 2.5625Zm-1.32813 5.96875q0-1.07813-.6875-1.75-.67187-.6875-1.78125-.6875-1.09375 0-1.76562.67187-.65625.67188-.65625 1.76563 0 1.07812.64062 1.70312.65625.625 1.79688.625 1.15625 0 1.79687-.625.65625-.625.65625-1.70312Zm-2.45312-8.15625q-.95313 0-1.54688.59375t-.59375 1.60937q0 .98438.57813 1.59375.59375.59375 1.5625.59375.98437 0 1.5625-.59375.59375-.60937.59375-1.57812 0-.98438-.60938-1.59375-.60937-.625-1.54687-.625Zm5.875 1.29687q0-1.14062.73437-1.89062.73438-.75 1.89063-.75 1.17187 0 1.89062.75t.71875 1.95312v.625q0 1.15625-.73437 1.89063-.73438.73437-1.85938.73437-1.14062 0-1.89062-.73437-.75-.73438-.75-1.95313v-.625Zm1.21875.6875q0 .6875.375 1.125.39062.4375 1.04687.4375.625 0 1-.42187.39063-.4375.39063-1.17188v-.65625q0-.67187-.39063-1.125-.375-.45312-1.03125-.45312-.64062 0-1.01562.45312-.375.45313-.375 1.17188v.64062Zm5.01562 6.51563q0-1.15625.73438-1.89063.73437-.75 1.875-.75 1.15625 0 1.89062.75.75.73438.75 1.95313v.625q0 1.15625-.73437 1.90625-.73438.73437-1.875.73437-1.14063 0-1.89063-.73437-.75-.73438-.75-1.95313v-.64062Zm1.21875.6875q0 .6875.375 1.14062.39063.4375 1.04688.4375.625 0 1-.42187.39062-.4375.39062-1.1875v-.65625q0-.6875-.39062-1.125-.375-.45313-1.01563-.45313-.625 0-1.01562.4375-.39063.4375-.39063 1.17188v.65625Zm-4.45312 1.48437-.92188-.57812 6.25-10 .92188.57812-6.25 10Zm74.66795 25.71122h1.78125v1.32812h-1.78125v2.96875h-1.625v-2.96875h-5.82813v-.95312l5.73438-8.875005h1.71875v8.500005Zm-5.60938 0h3.98438v-6.28125l-.20313.35937-3.78125 5.92188Zm14.98438-1.32813q-.51563.60938-1.21875.98438-.70313.35937-1.54688.35937-1.10937 0-1.9375-.54687-.8125-.54688-1.26562-1.53125-.45313-.98438-.45313-2.1875 0-1.28125.48438-2.312505.5-1.03125 1.39062-1.5625.89063-.546875 2.09375-.546875 1.89063 0 2.98438 1.421875 1.10937 1.406255 1.10937 3.859375v.48438q0 3.73437-1.48437 5.45312-1.46875 1.71875-4.45313 1.76563h-.3125v-1.375h.34375q2-.03125 3.07813-1.04688 1.09375-1.01562 1.1875-3.21875Zm-2.5 0q.8125 0 1.5-.5t1-1.23437v-.65625q0-1.59375-.6875-2.59375-.6875-1.01563-1.75-1.01563-1.07813 0-1.73438.828125-.64062.828125-.64062 2.171875 0 1.29688.625 2.15625.625.84375 1.6875.84375Zm6.125-4.71875q0-1.140625.73437-1.890625.73438-.75 1.89063-.75 1.17187 0 1.89062.75t.71875 1.953125v.625q0 1.15625-.73437 1.89063-.73438.73437-1.85938.73437-1.14062 0-1.89062-.73437-.75-.73438-.75-1.95313v-.625Zm1.21875.6875q0 .6875.375 1.125.39062.4375 1.04687.4375.625 0 1-.42187.39063-.4375.39063-1.17188v-.65625q0-.671875-.39063-1.125-.375-.453125-1.03125-.453125-.64062 0-1.01562.453125t-.375 1.17188v.64062Zm5.01562 6.51563q0-1.15625.73438-1.89063.73437-.75 1.875-.75 1.15625 0 1.89062.75.75.73438.75 1.95313v.625q0 1.15625-.73437 1.90625-.73438.73437-1.875.73437-1.14063 0-1.89063-.73437-.75-.73438-.75-1.95313v-.64062Zm1.21875.6875q0 .6875.375 1.14062.39063.4375 1.04688.4375.625 0 1-.42187.39062-.4375.39062-1.1875v-.65625q0-.6875-.39062-1.125-.375-.45313-1.01563-.45313-.625 0-1.01562.4375-.39063.4375-.39063 1.17188v.65625Zm-4.45312 1.48437-.92188-.57812 6.25-10.000005.92188.578125-6.25 10Zm74.66796 12.87987h1.78126v1.32812h-1.78126v2.96875h-1.625v-2.96875h-5.82812v-.95312l5.73438-8.875h1.71874v8.5Zm-5.60937 0h3.98437v-6.28125l-.20312.35937-3.78125 5.92188Zm15.60937 0h1.78126v1.32812h-1.78126v2.96875h-1.625v-2.96875h-5.82812v-.95312l5.73438-8.875h1.71874v8.5Zm-5.60937 0h3.98437v-6.28125l-.20312.35937-3.78125 5.92188Zm8.60937-6.04688q0-1.14062.73438-1.89062t1.89062-.75q1.17188 0 1.89063.75t.71875 1.95312v.625q0 1.15625-.73438 1.89063-.73437.73437-1.85937.73437-1.14063 0-1.89063-.73437-.75-.73438-.75-1.95313v-.625Zm1.21876.6875q0 .6875.375 1.125.39062.4375 1.04687.4375.625 0 1-.42187.39063-.4375.39063-1.17188v-.65625q0-.67187-.39063-1.125-.375-.45312-1.03125-.45312-.64062 0-1.01562.45312-.375.45313-.375 1.17188v.64062Zm5.01562 6.51563q0-1.15625.73438-1.89063.73437-.75 1.875-.75 1.15624 0 1.89062.75.75.73438.75 1.95313v.625q0 1.15625-.73438 1.90625-.73437.73437-1.875.73437-1.14062 0-1.89062-.73437-.75-.73438-.75-1.95313v-.64062Zm1.21875.6875q0 .6875.375 1.14062.39063.4375 1.04687.4375.625 0 1-.42187.39063-.4375.39063-1.1875v-.65625q0-.6875-.39063-1.125-.375-.45313-1.01562-.45313-.625 0-1.01562.4375-.39063.4375-.39063 1.17188v.65625Zm-4.45313 1.48437-.92187-.57812 6.25-10 .92187.57812-6.25 10Zm74.66795 6.80189h1.78125v1.32812h-1.78125v2.96875h-1.625v-2.96875h-5.82813v-.95312l5.73438-8.875h1.71875v8.5Zm-5.60938 0h3.98438v-6.28126l-.20313.35938-3.78125 5.92188Zm14.09375 4.29687h-1.64062v-10.84375l-3.26563 1.20312v-1.46874l4.65625-1.75h.25v12.85937Zm4.51563-10.34375q0-1.14062.73437-1.89062.73438-.75 1.89063-.75 1.17187 0 1.89062.75t.71875 1.95312v.625q0 1.15625-.73437 1.89062-.73438.73438-1.85938.73438-1.14062 0-1.89062-.73438-.75-.73437-.75-1.95312v-.625Zm1.21875.6875q0 .6875.375 1.125.39062.4375 1.04687.4375.625 0 1-.42188.39063-.4375.39063-1.17187v-.65625q0-.67188-.39063-1.125-.375-.45312-1.03125-.45312-.64062 0-1.01562.45312t-.375 1.17188v.64062Zm5.01562 6.51562q0-1.15624.73438-1.89062.73437-.75 1.875-.75 1.15625 0 1.89062.75.75.73438.75 1.95312v.625q0 1.15626-.73437 1.90626-.73438.73437-1.875.73437-1.14063 0-1.89063-.73437-.75-.73438-.75-1.95313v-.64063Zm1.21875.6875q0 .6875.375 1.14063.39063.4375 1.04688.4375.625 0 1-.42187.39062-.4375.39062-1.1875v-.65626q0-.6875-.39062-1.125-.375-.45312-1.01563-.45312-.625 0-1.01562.4375-.39063.4375-.39063 1.17188v.65624Zm-4.45312 1.48438-.92188-.57812 6.25-10 .92188.57812-6.25 10Zm70.16797.87225h1.23438q1.14062-.01562 1.79687-.60937.67187-.59375.67187-1.59375 0-2.25-2.25-2.25-1.04687 0-1.6875.60937-.625.59375-.625 1.59375h-1.625q0-1.51562 1.10938-2.51562 1.125-1.01563 2.82812-1.01563 1.8125 0 2.84376.95313 1.03124.95312 1.03124 2.65625 0 .84375-.54687 1.625-.53125.78125-1.46875 1.17187 1.04688.32813 1.625 1.10938.57812.76562.57812 1.89062 0 1.71875-1.125 2.73438-1.125 1-2.9375 1-1.79687 0-2.92187-.96875-1.125-.98438-1.125-2.57813h1.64063q0 1.01563.65624 1.625.65626.59375 1.76563.59375 1.17187 0 1.79687-.60937.625-.60938.625-1.76563 0-1.125-.6875-1.71875t-1.96874-.60937h-1.23438v-1.32813Zm13.875 1.5625q-.51562.60938-1.21875.98438-.70313.35937-1.54687.35937-1.10938 0-1.9375-.54687-.8125-.54688-1.26563-1.53125-.45313-.98438-.45313-2.1875 0-1.28125.48438-2.3125.5-1.03125 1.39062-1.5625.89063-.54688 2.09376-.54688 1.89062 0 2.98437 1.42188 1.10937 1.40625 1.10937 3.85937v.48438q0 3.73437-1.48437 5.45312-1.46875 1.71875-4.45313 1.76563h-.3125v-1.375h.34376q2-.03125 3.07812-1.04688 1.09375-1.01562 1.1875-3.21875Zm-2.5 0q.8125 0 1.5-.5t1-1.23437v-.65625q0-1.59375-.6875-2.59375-.6875-1.01563-1.75-1.01563-1.07812 0-1.73438.82813-.64062.82812-.64062 2.17187 0 1.29688.625 2.15625.625.84375 1.6875.84375Zm6.125-4.71875q0-1.14062.73438-1.89062.73437-.75 1.89062-.75 1.17188 0 1.89062.75.71876.75.71876 1.95312v.625q0 1.15625-.73438 1.89063-.73438.73437-1.85938.73437-1.14062 0-1.89062-.73437-.75-.73438-.75-1.95313v-.625Zm1.21875.6875q0 .6875.375 1.125.39063.4375 1.04687.4375.625 0 1-.42187.39063-.4375.39063-1.17188v-.65625q0-.67187-.39063-1.125-.375-.45312-1.03124-.45312-.64063 0-1.01563.45312-.375.45313-.375 1.17188v.64062Zm5.01563 6.51563q0-1.15625.73437-1.89063.73437-.75 1.875-.75 1.15625 0 1.89063.75.75.73438.75 1.95313v.625q0 1.15625-.73438 1.90625-.73438.73437-1.875.73437t-1.89062-.73437q-.75-.73438-.75-1.95313v-.64062Zm1.21874.6875q0 .6875.375 1.14062.39063.4375 1.04688.4375.625 0 1-.42187.39062-.4375.39062-1.1875v-.65625q0-.6875-.39062-1.125-.375-.45313-1.01562-.45313-.625 0-1.01563.4375-.39063.4375-.39063 1.17188v.65625Zm-4.45312 1.48437-.92188-.57812 6.25-10 .92188.57812-6.25 10Zm70.16793-1.15375h1.23435q1.14065-.01562 1.7969-.60937.6719-.59375.6719-1.59375 0-2.25-2.25-2.25-1.0469 0-1.6875.60937-.625.59375-.625 1.59375h-1.625q0-1.51562 1.10935-2.51562 1.125-1.01563 2.82815-1.01563 1.8125 0 2.8437.95313 1.0313.95312 1.0313 2.65625 0 .84375-.5469 1.625-.53125.78125-1.46875 1.17187 1.04685.32813 1.625 1.10938.57815.76562.57815 1.89062 0 1.71875-1.125 2.73438-1.125 1-2.9375 1-1.7969 0-2.9219-.96875-1.125-.98438-1.125-2.57813h1.6406q0 1.01563.6563 1.625.6562.59375 1.7656.59375 1.1719 0 1.7969-.60937.625-.60938.625-1.76563 0-1.125-.6875-1.71875t-1.9688-.60937h-1.23435v-1.32813Zm15.40625-2.26562q0 .95312-.5156 1.70312-.5.75-1.3594 1.17188 1 .42187 1.5781 1.25.5938.82812.5938 1.875 0 1.65625-1.125 2.64062-1.125.98438-2.95315.98438-1.84375 0-2.95315-.98438-1.10935-.98437-1.10935-2.64062 0-1.03125.5625-1.85938.57815-.84375 1.57815-1.28125-.8594-.42187-1.3594-1.17187-.4844-.75-.4844-1.6875 0-1.625 1.0313-2.5625 1.04685-.95313 2.73435-.95313t2.73435.95313q1.0469.9375 1.0469 2.5625Zm-1.3281 5.96875q0-1.07813-.6875-1.75-.6719-.6875-1.7813-.6875-1.0937 0-1.7656.67187-.65625.67188-.65625 1.76563 0 1.07812.64065 1.70312.6562.625 1.79685.625 1.15625 0 1.79685-.625.6563-.625.6563-1.70312Zm-2.45315-8.15625q-.95315 0-1.54685.59375-.5938.59375-.5938 1.60937 0 .98438.57815 1.59375.59375.59375 1.5625.59375.98435 0 1.5625-.59375.59375-.60937.59375-1.57812 0-.98438-.6094-1.59375-.60935-.625-1.54685-.625Zm5.875 1.29687q0-1.14062.73435-1.89062.7344-.75 1.89065-.75 1.17185 0 1.89065.75.7187.75.7187 1.95312v.625q0 1.15625-.73435 1.89063-.73435.73437-1.85935.73437-1.14065 0-1.89065-.73437-.75-.73438-.75-1.95313v-.625Zm1.21875.6875q0 .6875.375 1.125.3906.4375 1.0469.4375.625 0 1-.42187.3906-.4375.3906-1.17188v-.65625q0-.67187-.3906-1.125-.375-.45312-1.0313-.45312-.6406 0-1.0156.45312-.375.45313-.375 1.17188v.64062Zm5.0156 6.51563q0-1.15625.7344-1.89063.7344-.75 1.875-.75 1.15625 0 1.8906.75.75.73438.75 1.95313v.625q0 1.15625-.73435 1.90625-.73435.73437-1.875.73437t-1.89065-.73437q-.75-.73438-.75-1.95313v-.64062Zm1.2188.6875q0 .6875.375 1.14062.3906.4375 1.04685.4375.625 0 1-.42187.39065-.4375.39065-1.1875v-.65625q0-.6875-.39065-1.125-.375-.45313-1.01565-.45313-.625 0-1.0156.4375-.3906.4375-.3906 1.17188v.65625Zm-4.45315 1.48437-.92185-.57812 6.25-10 .92185.57812-6.25 10Zm24.83399-3.85508h1.23436q1.14064-.01563 1.7969-.60938.67186-.59375.67186-1.59375 0-2.25-2.25-2.25-1.04686 0-1.6875.60938-.625.59375-.625 1.59375h-1.625q0-1.51563 1.10938-2.51563 1.125-1.01562 2.82812-1.01562 1.8125 0 2.84374.95312 1.03126.95313 1.03126 2.65625 0 .84375-.54686 1.625-.53126.78125-1.46876 1.17188 1.04686.32812 1.625 1.10937.57812.76563.57812 1.89063 0 1.71875-1.125 2.73437-1.125 1-2.9375 1-1.79686 0-2.92186-.96875-1.125-.98437-1.125-2.57812h1.6406q0 1.01562.65626 1.625.65624.59375 1.76564.59375 1.17186 0 1.79686-.60938.625-.60937.625-1.76562 0-1.125-.6875-1.71875t-1.96876-.60938h-1.23436v-1.32812Zm15.90626-4.70313-5.2969 11.89063h-1.7031l5.28124-11.46875h-6.9375v-1.32813h8.65626v.90625Zm1.59374 1.54688q0-1.14063.73436-1.89063.7344-.75 1.89064-.75 1.17186 0 1.89062.75.71874.75.71874 1.95313v.625q0 1.15625-.73436 1.89062-.73438.73438-1.85938.73438-1.14062 0-1.89062-.73438-.75-.73437-.75-1.95312v-.625Zm1.21876.6875q0 .6875.375 1.125.3906.4375 1.04686.4375.625 0 1-.42188.39064-.4375.39064-1.17187v-.65625q0-.67188-.39064-1.125-.375-.45313-1.03126-.45313-.6406 0-1.0156.45313-.375.45312-.375 1.17187v.64063Zm5.0156 6.51562q0-1.15625.7344-1.89062.73436-.75 1.875-.75 1.15624 0 1.8906.75.75.73437.75 1.95312v.625q0 1.15625-.73436 1.90625-.73438.73438-1.875.73438-1.14064 0-1.89064-.73438-.75-.73437-.75-1.95312v-.64063Zm1.21876.6875q0 .6875.375 1.14063.39064.4375 1.04688.4375.625 0 1-.42188.39062-.4375.39062-1.1875v-.65625q0-.6875-.39062-1.125-.375-.45312-1.01564-.45312-.625 0-1.0156.4375-.39064.4375-.39064 1.17187v.65625Zm-4.45312 1.48438-.92188-.57813 6.25-10 .92188.57813-6.25 10Z"/>
    <path class="graph__axis-labels" d="M11.625449 342.09064q0-2.28124.46875-3.67188.46875-1.39062 1.390625-2.14062.9375-.76564 2.34375-.76564 1.031251 0 1.812501.4219.78125.40624 1.28125 1.2031.515625.78126.8125 1.9219.296875 1.125.296875 3.03124 0 2.26562-.46875 3.67186-.46875 1.39064-1.40625 2.15626-.921875.75-2.328126.75-1.875 0-2.9375-1.32812-1.265625-1.60938-1.265625-5.25Zm1.625 0q0 3.17186.734375 4.23436.75 1.0469 1.84375 1.0469 1.078126 0 1.828126-1.0469.75-1.0625.75-4.23436 0-3.17188-.75-4.21874-.75-1.0469-1.843751-1.0469-1.09375 0-1.75.9219-.8125 1.17186-.8125 4.34374ZM22.4692 348.45v-1.79686h1.8125V348.45q0 1-.359375 1.6094-.34375.60936-1.109375.9375l-.4375-.6719q.5-.21874.734375-.65624.234375-.42186.265625-1.21876h-.90625Zm10.109375 0H31.00045v-10.0781q-.578125.54686-1.5 1.09374-.921875.53126-1.671875.8125v-1.53124q1.328125-.625 2.328125-1.51564 1-.89062 1.40625-1.71876h1.015625V348.45Zm4.046875-3.375 1.65625-.1406q.1875 1.21874.859375 1.8281.671875.6094 1.625.6094 1.140625 0 1.921875-.8594.796875-.85936.796875-2.29686 0-1.34374-.765625-2.125-.75-.78124-1.984375-.78124-.765625 0-1.390625.34374-.609375.34376-.953125.90626l-1.484375-.20314 1.25-6.60936h6.40625v1.5h-5.140625l-.703125 3.46874q1.171875-.8125 2.4375-.8125 1.6875 0 2.84375 1.17186 1.171875 1.1719 1.171875 3 0 1.75-1.03125 3.03126-1.234375 1.5625-3.375 1.5625-1.765625 0-2.875-.98436-1.109375-.9844-1.265625-2.6094Zm65.66796-2.98436q0-2.28124.46875-3.67188.46875-1.39062 1.39063-2.14062.9375-.76564 2.34375-.76564 1.03125 0 1.8125.4219.78125.40624 1.28125 1.2031.51562.78126.8125 1.9219.29687 1.125.29687 3.03124 0 2.26562-.46875 3.67186-.46875 1.39064-1.40625 2.15626-.92187.75-2.32812.75-1.875 0-2.9375-1.32812-1.26563-1.60938-1.26563-5.25Zm1.625 0q0 3.17186.73438 4.23436.75 1.0469 1.84375 1.0469 1.07812 0 1.82812-1.0469.75-1.0625.75-4.23436 0-3.17188-.75-4.21874-.75-1.0469-1.84375-1.0469t-1.75.9219q-.8125 1.17186-.8125 4.34374Zm9.21875 6.35936v-1.79686h1.8125V348.45q0 1-.35937 1.6094-.34375.60936-1.10938.9375l-.4375-.6719q.5-.21874.73438-.65624.23437-.42186.26562-1.21876h-.90625Zm12.46875-1.5156v1.5156h-8.51562q-.01563-.5781.1875-1.09374.32812-.875 1.03125-1.71876.71875-.84374 2.07812-1.9531 2.09375-1.71876 2.82813-2.71876.75-1.01564.75-1.90624 0-.95314-.67188-1.59376-.67187-.64064-1.75-.64064-1.15625 0-1.84375.6875-.67187.6875-.6875 1.89064l-1.625-.17188q.17188-1.8125 1.25-2.76562 1.09375-.95314 2.9375-.95314t2.92188 1.03126q1.09375 1.03124 1.09375 2.54688 0 .76562-.32813 1.51562-.3125.75-1.04687 1.57814-.73438.8281-2.4375 2.2656-1.42188 1.20314-1.82813 1.625-.40625.4219-.65625.8594h6.3125Zm1.6875-1.8594 1.65625-.1406q.1875 1.21874.85938 1.8281.67187.6094 1.625.6094 1.14062 0 1.92187-.8594.79688-.85936.79688-2.29686 0-1.34374-.76563-2.125-.75-.78124-1.98437-.78124-.76563 0-1.39063.34374-.60937.34376-.95312.90626l-1.48438-.20314 1.25-6.60936h6.40625v1.5h-5.14062l-.70313 3.46874q1.17188-.8125 2.4375-.8125 1.6875 0 2.84375 1.17186 1.17188 1.1719 1.17188 3 0 1.75-1.03125 3.03126-1.23438 1.5625-3.375 1.5625-1.76563 0-2.875-.98436-1.10938-.9844-1.26563-2.6094Zm65.66795-2.98436q0-2.28124.46875-3.67188.46875-1.39062 1.39063-2.14062.9375-.76564 2.34375-.76564 1.03125 0 1.8125.4219.78125.40624 1.28125 1.2031.51562.78126.8125 1.9219.29687 1.125.29687 3.03124 0 2.26562-.46875 3.67186-.46875 1.39064-1.40625 2.15626-.92187.75-2.32812.75-1.875 0-2.9375-1.32812-1.26563-1.60938-1.26563-5.25Zm1.625 0q0 3.17186.73438 4.23436.75 1.0469 1.84375 1.0469 1.07812 0 1.82812-1.0469.75-1.0625.75-4.23436 0-3.17188-.75-4.21874-.75-1.0469-1.84375-1.0469t-1.75.9219q-.8125 1.17186-.8125 4.34374Zm9.21875 6.35936v-1.79686h1.8125V348.45q0 1-.35937 1.6094-.34375.60936-1.10938.9375l-.4375-.6719q.5-.21874.73438-.65624.23437-.42186.26562-1.21876h-.90625Zm4.15625-3.40624 1.59375-.20312q.26563 1.34376.92188 1.9375.65625.59376 1.59375.59376 1.125 0 1.89062-.76564.76563-.78126.76563-1.92186 0-1.09376-.71875-1.7969-.70313-.71874-1.79688-.71874-.45312 0-1.125.1875l.17188-1.39062q.15625.01562.26562.01562 1 0 1.8125-.53126.8125-.53124.8125-1.625 0-.875-.59375-1.4375-.59375-.5781-1.51562-.5781-.92188 0-1.54688.5781-.60937.57814-.78125 1.75l-1.57812-.28124q.28125-1.59376 1.3125-2.46876t2.5625-.875q1.04687 0 1.9375.45314.89062.45312 1.35937 1.23436.46875.78126.46875 1.65626 0 .84374-.45312 1.53124-.4375.6719-1.32813 1.07814 1.14063.26562 1.76563 1.10936.64062.82814.64062 2.0625 0 1.6875-1.23437 2.875-1.21875 1.1719-3.09375 1.1719-1.70313 0-2.82813-1.01564-1.10937-1.01562-1.28125-2.625Zm10 .03124 1.65625-.1406q.1875 1.21874.85938 1.8281.67187.6094 1.625.6094 1.14062 0 1.92187-.8594.79688-.85936.79688-2.29686 0-1.34374-.76563-2.125-.75-.78124-1.98437-.78124-.76563 0-1.39063.34374-.60937.34376-.95312.90626l-1.48438-.20314 1.25-6.60936h6.40625v1.5h-5.14062l-.70313 3.46874q1.17188-.8125 2.4375-.8125 1.6875 0 2.84375 1.17186 1.17188 1.1719 1.17188 3 0 1.75-1.03125 3.03126-1.23438 1.5625-3.375 1.5625-1.76563 0-2.875-.98436-1.10938-.9844-1.26563-2.6094Zm65.66797-2.98436q0-2.28124.46875-3.67188.46875-1.39062 1.39062-2.14062.9375-.76564 2.34376-.76564 1.03124 0 1.8125.4219.78124.40624 1.28124 1.2031.51563.78126.8125 1.9219.29688 1.125.29688 3.03124 0 2.26562-.46875 3.67186-.46875 1.39064-1.40625 2.15626-.92188.75-2.32812.75-1.875 0-2.9375-1.32812-1.26563-1.60938-1.26563-5.25Zm1.625 0q0 3.17186.73437 4.23436.75 1.0469 1.84376 1.0469 1.07812 0 1.82812-1.0469.75-1.0625.75-4.23436 0-3.17188-.75-4.21874-.75-1.0469-1.84375-1.0469t-1.75.9219q-.8125 1.17186-.8125 4.34374Zm9.21875 6.35936v-1.79686h1.8125V348.45q0 1-.35938 1.6094-.34374.60936-1.10937.9375l-.4375-.6719q.5-.21874.73437-.65624.23438-.42186.26563-1.21876h-.90625Zm9.21875 0v-3.0781h-5.57813v-1.45314l5.875-8.35936h1.29688v8.35936h1.73438v1.45314h-1.73438v3.0781h-1.59375Zm0-4.53124v-5.8125l-4.03125 5.8125h4.03125Zm4.9375 1.15624 1.65625-.1406q.1875 1.21874.85938 1.8281.67187.6094 1.625.6094 1.14062 0 1.92187-.8594.79687-.85936.79687-2.29686 0-1.34374-.76562-2.125-.75-.78124-1.98438-.78124-.76562 0-1.39062.34374-.60938.34376-.95312.90626l-1.48438-.20314 1.25-6.60936h6.40625v1.5h-5.14063l-.70312 3.46874q1.17188-.8125 2.4375-.8125 1.6875 0 2.84375 1.17186 1.17187 1.1719 1.17187 3 0 1.75-1.03124 3.03126-1.23438 1.5625-3.375 1.5625-1.76563 0-2.875-.98436-1.10938-.9844-1.26563-2.6094Zm65.66794-2.98436q0-2.28124.46875-3.67188.46875-1.39062 1.39063-2.14062.9375-.76564 2.34375-.76564 1.03125 0 1.8125.4219.78125.40624 1.28125 1.2031.51562.78126.8125 1.9219.29687 1.125.29687 3.03124 0 2.26562-.46875 3.67186-.46875 1.39064-1.40625 2.15626-.92187.75-2.32812.75-1.875 0-2.9375-1.32812-1.26563-1.60938-1.26563-5.25Zm1.625 0q0 3.17186.73438 4.23436.75 1.0469 1.84375 1.0469 1.07812 0 1.82812-1.0469.75-1.0625.75-4.23436 0-3.17188-.75-4.21874-.75-1.0469-1.84375-1.0469t-1.75.9219q-.8125 1.17186-.8125 4.34374Zm9.21875 6.35936v-1.79686h1.8125V348.45q0 1-.35937 1.6094-.34375.60936-1.10938.9375l-.4375-.6719q.5-.21874.73438-.65624.23437-.42186.26562-1.21876h-.90625Zm4.15625-3.375 1.65625-.1406q.1875 1.21874.85938 1.8281.67187.6094 1.625.6094 1.14062 0 1.92187-.8594.79688-.85936.79688-2.29686 0-1.34374-.76563-2.125-.75-.78124-1.98437-.78124-.76563 0-1.39063.34374-.60937.34376-.95312.90626l-1.48438-.20314 1.25-6.60936h6.40625v1.5h-5.14062l-.70313 3.46874q1.17188-.8125 2.4375-.8125 1.6875 0 2.84375 1.17186 1.17188 1.1719 1.17188 3 0 1.75-1.03125 3.03126-1.23438 1.5625-3.375 1.5625-1.76563 0-2.875-.98436-1.10938-.9844-1.26563-2.6094Zm10 0 1.65625-.1406q.1875 1.21874.85938 1.8281.67187.6094 1.625.6094 1.14062 0 1.92187-.8594.79688-.85936.79688-2.29686 0-1.34374-.76563-2.125-.75-.78124-1.98437-.78124-.76563 0-1.39063.34374-.60937.34376-.95312.90626l-1.48438-.20314 1.25-6.60936h6.40625v1.5h-5.14062l-.70313 3.46874q1.17188-.8125 2.4375-.8125 1.6875 0 2.84375 1.17186 1.17188 1.1719 1.17188 3 0 1.75-1.03125 3.03126-1.23438 1.5625-3.375 1.5625-1.76563 0-2.875-.98436-1.10938-.9844-1.26563-2.6094Zm65.66797-2.98436q0-2.28124.46876-3.67188.46874-1.39062 1.39062-2.14062.9375-.76564 2.34375-.76564 1.03125 0 1.8125.4219.78125.40624 1.28125 1.2031.51562.78126.8125 1.9219.29688 1.125.29688 3.03124 0 2.26562-.46876 3.67186-.46874 1.39064-1.40624 2.15626-.92188.75-2.32813.75-1.875 0-2.9375-1.32812-1.26563-1.60938-1.26563-5.25Zm1.625 0q0 3.17186.73438 4.23436.75 1.0469 1.84375 1.0469 1.07813 0 1.82813-1.0469.75-1.0625.75-4.23436 0-3.17188-.75-4.21874-.75-1.0469-1.84376-1.0469-1.09374 0-1.75.9219-.8125 1.17186-.8125 4.34374ZM475.809 348.45v-1.79686h1.8125V348.45q0 1-.35938 1.6094-.34375.60936-1.10938.9375l-.4375-.6719q.5-.21874.73438-.65624.23438-.42186.26562-1.21876h-.90624Zm12.35937-9.73436-1.5625.125q-.21875-.92188-.60937-1.34374-.64063-.6875-1.57813-.6875-.75 0-1.32813.42186-.75.54688-1.1875 1.59374-.42187 1.0469-.4375 2.9844.57813-.875 1.39063-1.2969.82813-.42186 1.73437-.42186 1.59376 0 2.70313 1.17186 1.10937 1.15626 1.10937 3 0 1.21876-.53124 2.26564-.51563 1.03126-1.4375 1.59376-.90626.54686-2.0625.54686-1.98438 0-3.23438-1.45312-1.25-1.45314-1.25-4.79688 0-3.73436 1.39062-5.4375 1.20313-1.46876 3.23438-1.46876 1.53125 0 2.5.8594.96875.84374 1.15625 2.34374Zm-6.45313 5.5625q0 .8125.34376 1.5625.34374.75.96874 1.14062.625.39064 1.3125.39064 1 0 1.71876-.8125.71874-.8125.71874-2.20314 0-1.32812-.71874-2.09376-.70313-.78124-1.78126-.78124-1.07812 0-1.82812.78124-.73438.76564-.73438 2.01564Zm8.25.79686 1.65626-.1406q.1875 1.21874.85937 1.8281.67187.6094 1.625.6094 1.14063 0 1.92187-.8594.79688-.85936.79688-2.29686 0-1.34374-.76562-2.125-.75-.78124-1.98438-.78124-.76562 0-1.39062.34374-.60938.34376-.95313.90626l-1.48437-.20314 1.25-6.60936h6.40624v1.5h-5.14062l-.70312 3.46874q1.17187-.8125 2.4375-.8125 1.6875 0 2.84374 1.17186 1.17188 1.1719 1.17188 3 0 1.75-1.03125 3.03126-1.23437 1.5625-3.375 1.5625-1.76563 0-2.875-.98436-1.10937-.9844-1.26563-2.6094Zm65.66796-2.98436q0-2.28124.4687-3.67188.4688-1.39062 1.39065-2.14062.9375-.76564 2.34375-.76564 1.03125 0 1.8125.4219.78125.40624 1.28125 1.2031.51565.78126.8125 1.9219.29685 1.125.29685 3.03124 0 2.26562-.4687 3.67186-.4688 1.39064-1.4063 2.15626-.92185.75-2.3281.75-1.875 0-2.9375-1.32812-1.2656-1.60938-1.2656-5.25Zm1.625 0q0 3.17186.73435 4.23436.75 1.0469 1.84375 1.0469 1.0781 0 1.8281-1.0469.75-1.0625.75-4.23436 0-3.17188-.75-4.21874-.75-1.0469-1.8437-1.0469-1.0938 0-1.75.9219-.8125 1.17186-.8125 4.34374Zm9.2187 6.35936v-1.79686h1.8125V348.45q0 1-.35935 1.6094-.34375.60936-1.10935.9375l-.4375-.6719q.5-.21874.73435-.65624.23435-.42186.26565-1.21876h-.9063Zm4.26565-11.2031v-1.51564h8.32815v1.23438q-1.2188 1.3125-2.4375 3.48436-1.20315 2.15626-1.8594 4.45314-.4844 1.625-.6094 3.54686h-1.625q.0313-1.5156.5938-3.67186.5781-2.15624 1.6406-4.15624 1.0625-2 2.2656-3.375h-6.29685Zm9.89065 7.8281 1.6562-.1406q.1875 1.21874.8594 1.8281.6719.6094 1.625.6094 1.1406 0 1.9219-.8594.79685-.85936.79685-2.29686 0-1.34374-.76565-2.125-.75-.78124-1.98435-.78124-.76565 0-1.39065.34374-.60935.34376-.9531.90626l-1.4844-.20314 1.25-6.60936h6.4063v1.5h-5.14065l-.70315 3.46874q1.1719-.8125 2.4375-.8125 1.6875 0 2.8438 1.17186 1.17185 1.1719 1.17185 3 0 1.75-1.03125 3.03126-1.2344 1.5625-3.375 1.5625-1.7656 0-2.875-.98436-1.1094-.9844-1.2656-2.6094Z"/>
  </svg>
  