<svg fill="none" viewBox="0 0 622 371">
    <path class="graph__vertical-lines" d="M28.5 18.5v304m141-304v304m142-304v304m141-304v304m141-304v304"/>
    <path class="graph__data-line graph__data-line--secondary"stroke-width="2" d="M28.219366 252.0862s18.852041-5.8455 28.278064-8.76824c9.426024-2.92274 18.85204-5.84549 28.27806-8.76823 9.426025-2.92275 18.85204-5.84549 28.27807-8.76823 9.426016-2.92275 18.85204-5.8455 28.27806-8.76824 9.42602-2.92274 28.27806-8.76823 28.27806-8.76823m282.78064-87.68233s18.85205-5.84549 28.27805-8.768236c9.42603-2.922744 18.85205-5.845489 28.27807-8.768234 9.426-2.922745 18.85202-5.84549 28.27806-8.768234 9.426-2.922746 18.85204-5.84549 28.27806-8.768236 9.42604-2.92274 28.27808-8.76823 28.27808-8.76823"/>
    <path class="graph__data-line graph__data-line--primary" stroke-width="2" d="M169.60968 208.24503s18.85205-5.84549 28.27806-8.76824c9.42603-2.92274 18.85205-5.84549 28.27808-8.76823 9.42601-2.92275 18.85203-5.84549 28.27806-8.76824 9.42602-2.92272 18.85205-5.84547 28.27804-8.76822 9.42603-2.92274 18.85205-5.84549 28.27808-8.76823 9.42603-2.92275 18.85205-5.84549 28.27808-8.76823 9.42599-2.92275 18.85202-5.84549 28.27804-8.76824 9.42603-2.92274 18.85205-5.84549 28.27808-8.76823 9.42602-2.92275 18.85202-5.88019 28.27804-8.76824 9.42603-2.88804 28.27808-8.56002 28.27808-8.56002"/>
    <path class="graph__data-points graph__data-points--secondary" d="M34.219368 252.0862c0 3.3137-2.686293 6-6.000002 6-3.313707 0-6-2.6863-6-6 0-3.31371 2.686293-6 6-6 3.313709 0 6.000002 2.68629 6.000002 6Z"/>
    <path class="graph__data-points graph__data-points--primary" d="M458.39032 120.5627c0 3.3137-2.68632 6-6 6-3.31372 0-6-2.6863-6-6 0-3.313715 2.68628-6 6-6 3.31368 0 6 2.686285 6 6Z"/>
    <path class="graph__data-points graph__data-points--secondary" d="M599.78064 76.72153c0 3.31371-2.68628 6-6 6-3.31374 0-6-2.68629-6-6s2.68626-6 6-6c3.31372 0 6 2.68629 6 6Z"/>
    <path class="graph__data-points graph__data-points--primary" d="M175.60968 208.24503c0 3.31372-2.68629 6-6 6s-6-2.68628-6-6c0-3.31371 2.68629-6 6-6s6 2.68629 6 6Z"/>
    <path class="graph__data-points graph__data-points--primary" d="M317 164.40387c0 3.31371-2.68628 6-6 6s-6-2.68629-6-6c0-3.31372 2.68628-6 6-6s6 2.68628 6 6Z"/>
    <path class="graph__data-points graph__data-points--primary" d="M458.39032 120.77091c0 3.31371-2.68632 6-6 6-3.31372 0-6-2.68629-6-6s2.68628-6 6-6c3.31368 0 6 2.68629 6 6Z"/>
    <path class="graph__data-label graph__data-label--secondary" d="m18.031866 227.66432.65625-6.375h6.546875v1.5h-5.171875l-.390625 3.48438q.9375-.54688 2.140625-.54688 1.75 0 2.765625 1.15625 1.03125 1.15625 1.03125 3.125 0 1.98438-1.0625 3.125-1.0625 1.125-2.984375 1.125-1.703125 0-2.78125-.9375-1.0625-.9375-1.203125-2.59375h1.53125q.15625 1.09375.78125 1.65625.640625.54688 1.671875.54688 1.140625 0 1.78125-.76563.640625-.78125.640625-2.14062 0-1.28125-.703125-2.0625-.6875-.78125-1.84375-.78125-1.0625 0-1.671875.46875l-.4375.35937-1.296875-.34375Zm9.359375 8.96875-.921875-.625q.828125-1.15625.859375-2.375v-1.46875h1.59375v1.26563q0 .89062-.4375 1.78125-.421875.89062-1.09375 1.42187Zm4.640627-8.96875.65625-6.375h6.546875v1.5h-5.171875l-.390625 3.48438q.9375-.54688 2.140625-.54688 1.75 0 2.765625 1.15625 1.03125 1.15625 1.03125 3.125 0 1.98438-1.0625 3.125-1.0625 1.125-2.984375 1.125-1.703125 0-2.78125-.9375-1.062502-.9375-1.203127-2.59375h1.531252q.15625 1.09375.78125 1.65625.640625.54688 1.671875.54688 1.140625 0 1.78125-.76563.640625-.78125.640625-2.14062 0-1.28125-.703125-2.0625-.6875-.78125-1.84375-.78125-1.0625 0-1.671875.46875l-.4375.35937-1.296875-.34375Z"/>
    <path class="graph__data-label graph__data-label--secondary" d="M583.1869 58.72153h-1.64064V47.87778l-3.26562 1.203126v-1.46875l4.65626-1.75h.25V58.72153Zm10 0h-1.64064V47.87778l-3.26562 1.203126v-1.46875l4.65626-1.75h.25V58.72153Zm4.7656 2.546876-.92186-.625q.82812-1.15625.85936-2.375v-1.46875h1.59376v1.265624q0 .890626-.4375 1.78125-.42186.890626-1.09376 1.421876Zm10.125-8.171876q-.5156.609376-1.21874.984376-.70312.359374-1.54686.359374-1.1094 0-1.9375-.546874-.8125-.546876-1.26564-1.53125-.45312-.984376-.45312-2.1875 0-1.28125.48436-2.3125.5-1.03125 1.39064-1.5625.89062-.546876 2.09376-.546876 1.8906 0 2.98436 1.421876 1.10938 1.40625 1.10938 3.859374v.484376q0 3.734374-1.48438 5.453124-1.46876 1.71875-4.45312 1.765626h-.3125v-1.375h.34376q2-.03125 3.0781-1.046876 1.09376-1.015624 1.1875-3.21875Zm-2.5 0q.8125 0 1.5-.5t1-1.234374v-.65625q0-1.59375-.6875-2.59375-.6875-1.015626-1.75-1.015626-1.0781 0-1.73436.828126-.64064.828124-.64064 2.171874 0 1.296876.625 2.15625.625.84375 1.6875.84375Z"/>
    <path class="graph__data-label graph__data-label--primary" d="m166.9378 178.3544-5.29687 11.89063h-1.70313l5.28126-11.46875h-6.9375v-1.32813h8.65624v.90625Zm1.84376 14.4375-.92188-.625q.82812-1.15625.85938-2.375v-1.46875h1.59374v1.26563q0 .89062-.4375 1.78125-.42187.89062-1.09374 1.42187Zm9.23437-2.54687h-1.64063v-10.84375l-3.26562 1.20312v-1.46875l4.65625-1.75h.25v12.85938Z"/>
    <path class="graph__data-label graph__data-label--primary" d="M307.82812 136.95074q0 .95313-.51562 1.70313-.5.75-1.35938 1.17187 1 .42188 1.57813 1.25.59375.82813.59375 1.875 0 1.65626-1.125 2.64063-1.125.98437-2.95312.98437-1.84376 0-2.95313-.98437-1.10937-.98437-1.10937-2.64063 0-1.03124.5625-1.85937.57812-.84375 1.57812-1.28125-.85938-.42188-1.35938-1.17188-.48437-.75-.48437-1.6875 0-1.625 1.03125-2.5625 1.04688-.95312 2.73438-.95312 1.6875 0 2.73437.95312 1.04687.9375 1.04687 2.5625ZM306.5 142.9195q0-1.07813-.6875-1.75-.67188-.6875-1.78125-.6875-1.09375 0-1.76563.67187-.65624.67187-.65624 1.76563 0 1.07812.64062 1.70312.65625.625 1.79688.625 1.15624 0 1.79687-.625.65625-.625.65625-1.70312Zm-2.45312-8.15626q-.95313 0-1.54688.59376-.59375.59374-.59375 1.60937 0 .98437.57813 1.59375.59374.59375 1.5625.59375.98437 0 1.5625-.59375.59374-.60938.59374-1.57812 0-.98438-.60937-1.59376-.60937-.625-1.54687-.625Zm6.125 14.1875-.92188-.625q.82812-1.15624.85938-2.375V144.482h1.59374v1.26562q0 .89062-.4375 1.78125-.42187.89063-1.09374 1.42187Zm12.15624-14.4375-5.29687 11.89063h-1.70313l5.28126-11.46875h-6.9375V133.607h8.65624v.90624Z"/>
    <path class="graph__data-label graph__data-label--primary" d="M441.79657 102.77091h-1.64063V91.92716l-3.26562 1.20313v-1.46875l4.65625-1.75h.25v12.85937Zm12.6875-5.45312q0 2.84375-.98437 4.23437-.96876 1.39063-3.04688 1.39063-2.04688 0-3.03125-1.35938-.98437-1.35937-1.01563-4.04687v-2.17188q0-2.82812.96876-4.1875.98437-1.375 3.0625-1.375 2.0625 0 3.03124 1.32813.98438 1.3125 1.01563 4.07812v2.10938Zm-1.625-2.23438q0-2.0625-.59375-3-.57812-.95312-1.82812-.95312t-1.82813.95312q-.5625.9375-.57813 2.875v2.60938q0 2.07812.59376 3.0625.60937.98437 1.82812.98437 1.20312 0 1.78125-.92187.59375-.9375.625-2.9375v-2.67188Zm3.70313 10.23438-.92188-.625q.82812-1.15625.85938-2.375v-1.46875h1.59374v1.26562q0 .89063-.4375 1.78125-.42187.89063-1.09374 1.42188Zm6.25-9.73438h1.23437q1.14063-.01562 1.79687-.60937.67188-.59375.67188-1.59375 0-2.25-2.25-2.25-1.04688 0-1.6875.60937-.625.59375-.625 1.59375h-1.625q0-1.51562 1.10938-2.51562 1.125-1.01563 2.82812-1.01563 1.8125 0 2.84375.95313 1.03125.95312 1.03125 2.65625 0 .84375-.54688 1.625-.53124.78125-1.46874 1.17187 1.04687.32813 1.625 1.10938.57812.76562.57812 1.89062 0 1.71875-1.125 2.73438-1.125 1-2.9375 1-1.79688 0-2.92188-.96875-1.125-.98438-1.125-2.57813h1.64063q0 1.01563.65625 1.625.65625.59375 1.76562.59375 1.17188 0 1.79688-.60937.625-.60938.625-1.76563 0-1.125-.6875-1.71875t-1.96875-.60937h-1.23437v-1.32813Z"/>
    <path class="graph__axis-labels" d="M11.469367 342.09064q0-2.28124.46875-3.67188.46875-1.39062 1.390625-2.14062.9375-.76564 2.34375-.76564 1.031251 0 1.812501.4219.78125.40624 1.28125 1.2031.515625.78126.8125 1.9219.296875 1.125.296875 3.03124 0 2.26562-.46875 3.67186-.46875 1.39064-1.40625 2.15626-.921875.75-2.328126.75-1.875 0-2.9375-1.32812-1.265625-1.60938-1.265625-5.25Zm1.625 0q0 3.17186.734375 4.23436.75 1.0469 1.84375 1.0469 1.078126 0 1.828126-1.0469.75-1.0625.75-4.23436 0-3.17188-.75-4.21874-.75-1.0469-1.843751-1.0469-1.09375 0-1.75.9219-.8125 1.17186-.8125 4.34374Zm9.218751 6.35936v-1.79686h1.8125V348.45q0 1-.359375 1.6094-.34375.60936-1.109375.9375l-.4375-.6719q.5-.21874.734375-.65624.234375-.42186.265625-1.21876h-.90625Zm10.109375 0h-1.578125v-10.0781q-.578125.54686-1.5 1.09374-.921875.53126-1.671875.8125v-1.53124q1.328125-.625 2.328125-1.51564 1-.89062 1.40625-1.71876h1.015625V348.45Zm4.046875-6.35936q0-2.28124.46875-3.67188.46875-1.39062 1.390625-2.14062.9375-.76564 2.34375-.76564 1.03125 0 1.8125.4219.78125.40624 1.28125 1.2031.515625.78126.8125 1.9219.296875 1.125.296875 3.03124 0 2.26562-.46875 3.67186-.46875 1.39064-1.40625 2.15626-.921875.75-2.328125.75-1.875 0-2.9375-1.32812-1.265625-1.60938-1.265625-5.25Zm1.625 0q0 3.17186.734375 4.23436.75 1.0469 1.84375 1.0469 1.078125 0 1.828125-1.0469.75-1.0625.75-4.23436 0-3.17188-.75-4.21874-.75-1.0469-1.84375-1.0469t-1.75.9219q-.8125 1.17186-.8125 4.34374Zm114.765312 0q0-2.28124.46875-3.67188.46875-1.39062 1.39063-2.14062.9375-.76564 2.34374-.76564 1.03126 0 1.8125.4219.78126.40624 1.28126 1.2031.51562.78126.8125 1.9219.29687 1.125.29687 3.03124 0 2.26562-.46875 3.67186-.46875 1.39064-1.40625 2.15626-.92187.75-2.32813.75-1.875 0-2.9375-1.32812-1.26562-1.60938-1.26562-5.25Zm1.625 0q0 3.17186.73438 4.23436.75 1.0469 1.84374 1.0469 1.07813 0 1.82813-1.0469.75-1.0625.75-4.23436 0-3.17188-.75-4.21874-.75-1.0469-1.84375-1.0469t-1.75.9219q-.8125 1.17186-.8125 4.34374Zm9.21875 6.35936v-1.79686h1.8125V348.45q0 1-.35937 1.6094-.34376.60936-1.10938.9375l-.4375-.6719q.5-.21874.73438-.65624.23437-.42186.26562-1.21876h-.90625Zm10.10937 0h-1.57812v-10.0781q-.57812.54686-1.5 1.09374-.92188.53126-1.67188.8125v-1.53124q1.32813-.625 2.32813-1.51564 1-.89062 1.40625-1.71876h1.01562V348.45Zm4.04688-3.375 1.65625-.1406q.1875 1.21874.85937 1.8281.67188.6094 1.625.6094 1.14063 0 1.92188-.8594.79688-.85936.79688-2.29686 0-1.34374-.76563-2.125-.75-.78124-1.98437-.78124-.76563 0-1.39063.34374-.60937.34376-.95313.90626l-1.48437-.20314 1.25-6.60936h6.40625v1.5h-5.14062l-.70313 3.46874q1.17187-.8125 2.4375-.8125 1.6875 0 2.84375 1.17186 1.17188 1.1719 1.17188 3 0 1.75-1.03126 3.03126-1.23437 1.5625-3.375 1.5625-1.76562 0-2.875-.98436-1.10937-.9844-1.26562-2.6094ZM294.25 342.09064q0-2.28124.46875-3.67188.46875-1.39062 1.39063-2.14062.9375-.76564 2.34374-.76564 1.03126 0 1.8125.4219.78126.40624 1.28126 1.2031.51562.78126.8125 1.9219.29687 1.125.29687 3.03124 0 2.26562-.46875 3.67186-.46875 1.39064-1.40625 2.15626-.92187.75-2.32813.75-1.875 0-2.9375-1.32812-1.26562-1.60938-1.26562-5.25Zm1.625 0q0 3.17186.73438 4.23436.75 1.0469 1.84374 1.0469 1.07813 0 1.82813-1.0469.75-1.0625.75-4.23436 0-3.17188-.75-4.21874-.75-1.0469-1.84375-1.0469t-1.75.9219q-.8125 1.17186-.8125 4.34374Zm9.21875 6.35936v-1.79686h1.8125V348.45q0 1-.35937 1.6094-.34376.60936-1.10938.9375L305 350.325q.5-.21874.73438-.65624.23437-.42186.26562-1.21876h-.90625Zm12.46875-1.5156v1.5156h-8.51562q-.01563-.5781.1875-1.09374.32812-.875 1.03124-1.71876.71876-.84374 2.07813-1.9531 2.09375-1.71876 2.82813-2.71876.75-1.01564.75-1.90624 0-.95314-.67188-1.59376-.67188-.64064-1.75-.64064-1.15625 0-1.84375.6875-.67187.6875-.6875 1.89064l-1.625-.17188q.17187-1.8125 1.25-2.76562 1.09375-.95314 2.9375-.95314t2.92187 1.03126q1.09376 1.03124 1.09376 2.54688 0 .76562-.32813 1.51562-.3125.75-1.04687 1.57814-.73438.8281-2.4375 2.2656-1.42188 1.20314-1.82813 1.625-.40625.4219-.65625.8594h6.3125Zm1.6875-4.84376q0-2.28124.46875-3.67188.46875-1.39062 1.39063-2.14062.9375-.76564 2.34374-.76564 1.03126 0 1.8125.4219.78126.40624 1.28126 1.2031.51562.78126.8125 1.9219.29687 1.125.29687 3.03124 0 2.26562-.46875 3.67186-.46875 1.39064-1.40625 2.15626-.92187.75-2.32813.75-1.875 0-2.9375-1.32812-1.26562-1.60938-1.26562-5.25Zm1.625 0q0 3.17186.73438 4.23436.75 1.0469 1.84374 1.0469 1.07813 0 1.82813-1.0469.75-1.0625.75-4.23436 0-3.17188-.75-4.21874-.75-1.0469-1.84375-1.0469t-1.75.9219q-.8125 1.17186-.8125 4.34374Zm114.76532 0q0-2.28124.46875-3.67188.46875-1.39062 1.39063-2.14062.9375-.76564 2.34374-.76564 1.03126 0 1.8125.4219.78126.40624 1.28126 1.2031.51562.78126.8125 1.9219.29687 1.125.29687 3.03124 0 2.26562-.46875 3.67186-.46875 1.39064-1.40625 2.15626-.92187.75-2.32813.75-1.875 0-2.9375-1.32812-1.26562-1.60938-1.26562-5.25Zm1.625 0q0 3.17186.73438 4.23436.75 1.0469 1.84374 1.0469 1.07813 0 1.82813-1.0469.75-1.0625.75-4.23436 0-3.17188-.75-4.21874-.75-1.0469-1.84375-1.0469t-1.75.9219q-.8125 1.17186-.8125 4.34374Zm9.21875 6.35936v-1.79686h1.8125V348.45q0 1-.35937 1.6094-.34376.60936-1.10938.9375l-.4375-.6719q.5-.21874.73438-.65624.23437-.42186.26562-1.21876h-.90625Zm12.46875-1.5156v1.5156h-8.51562q-.01563-.5781.1875-1.09374.32812-.875 1.03124-1.71876.71876-.84374 2.07813-1.9531 2.09375-1.71876 2.82813-2.71876.75-1.01564.75-1.90624 0-.95314-.67188-1.59376-.67188-.64064-1.75-.64064-1.15625 0-1.84375.6875-.67187.6875-.6875 1.89064l-1.625-.17188q.17187-1.8125 1.25-2.76562 1.09375-.95314 2.9375-.95314t2.92187 1.03126q1.09376 1.03124 1.09376 2.54688 0 .76562-.32813 1.51562-.3125.75-1.04687 1.57814-.73438.8281-2.4375 2.2656-1.42188 1.20314-1.82813 1.625-.40625.4219-.65625.8594h6.3125Zm1.6875-1.8594 1.65625-.1406q.1875 1.21874.85937 1.8281.67188.6094 1.625.6094 1.14063 0 1.92188-.8594.79688-.85936.79688-2.29686 0-1.34374-.76563-2.125-.75-.78124-1.98437-.78124-.76563 0-1.39063.34374-.60937.34376-.95313.90626l-1.48437-.20314 1.25-6.60936h6.40625v1.5h-5.14062l-.70313 3.46874q1.17187-.8125 2.4375-.8125 1.6875 0 2.84375 1.17186 1.17188 1.1719 1.17188 3 0 1.75-1.03126 3.03126-1.23437 1.5625-3.375 1.5625-1.76562 0-2.875-.98436-1.10937-.9844-1.26562-2.6094Zm116.39032-2.98436q0-2.28124.46876-3.67188.46874-1.39062 1.3906-2.14062.9375-.76564 2.34376-.76564 1.03124 0 1.8125.4219.78124.40624 1.28124 1.2031.51564.78126.8125 1.9219.2969 1.125.2969 3.03124 0 2.26562-.46876 3.67186-.46874 1.39064-1.40624 2.15626-.9219.75-2.32814.75-1.875 0-2.9375-1.32812-1.26562-1.60938-1.26562-5.25Zm1.625 0q0 3.17186.73436 4.23436.75 1.0469 1.84376 1.0469 1.07814 0 1.82814-1.0469.75-1.0625.75-4.23436 0-3.17188-.75-4.21874-.75-1.0469-1.84376-1.0469-1.09374 0-1.75.9219-.8125 1.17186-.8125 4.34374Zm9.21876 6.35936v-1.79686h1.8125V348.45q0 1-.3594 1.6094-.34374.60936-1.10936.9375l-.4375-.6719q.5-.21874.73436-.65624.2344-.42186.26564-1.21876h-.90624Zm4.15624-3.40624 1.59376-.20312q.2656 1.34376.92186 1.9375.65624.59376 1.59374.59376 1.125 0 1.89064-.76564.76562-.78126.76562-1.92186 0-1.09376-.71876-1.7969-.7031-.71874-1.79686-.71874-.45314 0-1.125.1875l.17186-1.39062q.15626.01562.26564.01562 1 0 1.8125-.53126.8125-.53124.8125-1.625 0-.875-.59374-1.4375-.59376-.5781-1.51564-.5781-.92186 0-1.54686.5781-.6094.57814-.78126 1.75l-1.57814-.28124q.28126-1.59376 1.3125-2.46876 1.03126-.875 2.5625-.875 1.0469 0 1.9375.45314.89064.45312 1.3594 1.23436.46874.78126.46874 1.65626 0 .84374-.45314 1.53124-.4375.6719-1.3281 1.07814 1.1406.26562 1.7656 1.10936.64064.82814.64064 2.0625 0 1.6875-1.23438 2.875-1.21876 1.1719-3.09376 1.1719-1.7031 0-2.8281-1.01564-1.1094-1.01562-1.28126-2.625Zm10-2.95312q0-2.28124.46876-3.67188.46874-1.39062 1.3906-2.14062.9375-.76564 2.34376-.76564 1.03124 0 1.8125.4219.78124.40624 1.28124 1.2031.51564.78126.8125 1.9219.2969 1.125.2969 3.03124 0 2.26562-.46876 3.67186-.46874 1.39064-1.40624 2.15626-.9219.75-2.32814.75-1.875 0-2.9375-1.32812-1.26562-1.60938-1.26562-5.25Zm1.625 0q0 3.17186.73436 4.23436.75 1.0469 1.84376 1.0469 1.07814 0 1.82814-1.0469.75-1.0625.75-4.23436 0-3.17188-.75-4.21874-.75-1.0469-1.84376-1.0469-1.09374 0-1.75.9219-.8125 1.17186-.8125 4.34374Z"/>
  </svg>
  